<svg width="615" height="730" viewBox="0 0 615 730" fill="none" xmlns="http://www.w3.org/2000/svg">
<rect width="615" height="730" fill="1A1D22"/>
<path d="M615 0H0V590H615V0Z" fill="1A1D22"/>

<path d="M57.6562 295C57.6562 427.75 169.125 534.688 307.5 534.688C445.875 534.688 557.344 427.75 557.344 295C557.344 162.25 445.875 55.3125 307.5 55.3125C169.125 55.3125 57.6562 162.25 57.6562 295ZM115.312 295C115.312 193.594 201.797 110.625 307.5 110.625C413.203 110.625 499.688 193.594 499.688 295C499.688 396.406 413.203 479.375 307.5 479.375C201.797 479.375 115.312 396.406 115.312 295Z" fill="#232323"/>
</svg>
