<?xml version="1.0" encoding="UTF-8"?>
<!DOCTYPE svg PUBLIC "-//W3C//DTD SVG 1.1//EN" "http://www.w3.org/Graphics/SVG/1.1/DTD/svg11.dtd">
<!-- Creator: CorelDRAW 2019 (64-Bit) -->
<svg xmlns="http://www.w3.org/2000/svg" xml:space="preserve" width="20px" height="20px" version="1.1" style="shape-rendering:geometricPrecision; text-rendering:geometricPrecision; image-rendering:optimizeQuality; fill-rule:evenodd; clip-rule:evenodd"
viewBox="0 0 540.73 540.73"
 xmlns:xlink="http://www.w3.org/1999/xlink"
 xmlns:xodm="http://www.corel.com/coreldraw/odm/2003">
 <defs>
  <style type="text/css">
   <![CDATA[
    .fil0 {fill:#555555}
   ]]>
  </style>
 </defs>
 <g id="Слой_x0020_1">
  <metadata id="CorelCorpID_0Corel-Layer"/>
  <path class="fil0" d="M285.85 275.46c16.37,-10.91 27.65,-13.12 45.6,-1.16l-37.76 95.06c-7.97,20.33 -7.84,15.54 -7.84,36.41 5.99,-6.86 48.9,-115.82 54.9,-130.36 1.71,-3.77 2.52,-4.56 6.85,-5.98 17.53,-5.78 26.9,0.87 34.13,2.55 -1.23,4.57 -73.31,111.18 -81.61,123.56 -4.09,6.1 -8.58,12.09 -11.92,18.38l5.64 4.87c2.82,-9.26 69.84,-103.57 80.88,-120.05 12.95,-19.34 13.93,-29.09 39.75,-29.09 5.16,0 8.33,1.72 11.69,3.49 -0.64,7.66 -105.92,123.21 -117.2,135.85 -11.73,13.14 -12.58,12.35 -12.58,24.71 45.12,-51.65 90.91,-102.67 136,-154.37 2.79,-3.23 3.17,-1.97 4.3,-6.19 -5.96,-8.85 -23.26,-23.71 -28.96,-29.36 -19.01,-18.83 -46.4,-37 -72.24,-44.46 -11.87,-3.43 -37.07,-8.79 -49.63,-8.79l0 84.93z"/>
  <path class="fil0" d="M251.95 138.17l11.69 -4.65 -1.96 281.94c-0.05,6.99 -8.48,4.34 -8.66,13.48l0.1 44.31 17.54 -13.96 17.54 13.96c0,-14.38 0.08,-28.76 0.08,-43.13 0,-10 -8.03,-8.83 -8.07,-14.07l-2.53 -282.53 11.69 4.65 -18.64 -57.01 -18.78 57.01z"/>
  <polygon class="fil0" points="235.85,33.73 199.33,11.35 181.8,49.74 131.52,40.44 199.33,168.42 208.69,166.09 150.23,54.4 188.81,60.22 202.84,26.47 236.75,46.25 270.37,13.4 303.1,46.54 336.13,26.47 351.32,60.22 389.91,54.4 331.45,166.09 340.8,168.42 407.44,40.44 357.17,49.74 340.8,11.35 304.56,33.45 270.36,0 "/>
  <polygon class="fil0" points="516.18,312.69 457.9,306.41 450.95,314.64 534.88,325.49 510.33,281.27 540.73,252.19 506.82,227.75 527.87,182.38 483.44,162.6 492.79,120.72 450.7,117.23 442.52,67.2 347.82,170.74 358.34,174.24 436.67,89.3 442.52,126.53 479.93,130.02 471.75,167.25 513.84,187.03 495.13,231.25 525.53,253.35 498.64,280.11 "/>
  <path class="fil0" d="M285.85 181.22c12.79,0.28 45.17,6.28 56.58,10.01 28.51,9.34 42.4,22.43 62.85,38.68 14.77,11.73 38.41,40.32 59.45,42.06 -2.79,4.14 -6.53,7.1 -10.24,10.75 -4.22,4.16 -6.2,7.42 -10.51,11.65l-33.34 33.14c-4.12,4.08 -6.19,7.4 -10.5,11.65 -12.65,12.47 -26.07,24.77 -37.47,38.34 -7.18,8.54 -31.81,30.44 -39.06,39.08l-21.69 22.63c-6.97,6.72 -5.54,4.08 -5.54,16.59l144.1 -145.14c11.91,-11.71 24.1,-27.01 39.17,-40.14 6.03,-5.25 8.78,-6.02 11.18,-15.74 3.82,-15.5 -17.91,-21.87 -17.91,-8.41 0,6.02 5.22,2.38 6.47,7.41 1.07,4.31 -0.5,4.84 -4.68,6.01 -10.91,3.05 -23.61,-3.66 -31.22,-9.73l-34.02 -31.3c-31.63,-30.64 -78.88,-50.33 -123.63,-50.33l0 12.8z"/>
  <path class="fil0" d="M75.4 260.33c-6.29,0 -15.42,0.37 -13.49,-6.55 1.65,-5.91 6.47,0.44 6.47,-9.74 0,-7.66 -18.71,-6.96 -18.71,6.98 0,14.37 32.72,36.72 45.6,53.52 4.96,6.47 41.11,41.49 49.98,50.32l11.7 12.79c10.4,11.75 49.54,47.78 56.58,56.55 6.08,7.58 25.5,27.66 31.39,31.59 0,-14.46 2.36,-8.71 -16.08,-27.05l-92.31 -94.29c-11.71,-13.94 -25.64,-26.68 -38.64,-39.5l-21.33 -22.98c22.01,-1.82 54.18,-39.45 77.48,-56.69 28.5,-21.09 50.7,-27.63 85.5,-32.42 4.3,-0.59 12.55,-1.56 15.89,-1.64l0 -12.8c-22.62,0 -42.86,4.17 -60.97,11.47 -33.56,13.52 -54.31,29.37 -79.04,53.98 -8.82,8.78 -26.36,26.47 -40.04,26.47z"/>
  <polygon class="fil0" points="21.62,380.17 67.22,402.28 59.03,443 101.12,446.49 109.71,493.46 157.24,486.05 172.44,525.6 209.86,504.66 244.93,540.73 253.11,486.05 242.59,489.54 237.92,519.79 211.02,493.03 177.12,510.48 164.26,475.57 117.49,482.56 109.74,436.96 70.72,433.69 77.74,396.46 45,379.01 119.61,342.5 112.81,334.79 "/>
  <polygon class="fil0" points="24.55,312.69 82.83,306.41 89.78,314.64 5.85,325.49 30.4,281.27 -0,252.19 33.91,227.75 12.86,182.38 57.29,162.6 47.94,120.72 90.03,117.23 98.21,67.2 192.91,170.74 182.39,174.24 104.06,89.3 98.21,126.53 60.8,130.02 68.98,167.25 26.89,187.03 45.6,231.25 15.2,253.35 42.09,280.11 "/>
  <polygon class="fil0" points="519.68,380.17 474.09,402.28 482.27,443 440.18,446.49 431.59,493.46 384.06,486.05 368.86,525.6 331.45,504.66 296.37,540.73 288.19,486.05 298.71,489.54 303.39,519.79 330.28,493.03 364.18,510.48 377.05,475.57 423.81,482.56 431.56,436.96 470.58,433.69 463.56,396.46 496.3,379.01 421.7,342.5 428.49,334.79 "/>
  <path class="fil0" d="M255.59 275.46c-16.37,-10.91 -27.65,-13.12 -45.6,-1.16l37.76 95.06c7.97,20.33 7.84,15.54 7.84,36.41 -5.99,-6.86 -48.9,-115.82 -54.9,-130.36 -1.71,-3.77 -2.52,-4.56 -6.85,-5.98 -17.53,-5.78 -26.9,0.87 -34.13,2.55 1.23,4.57 73.31,111.18 81.61,123.56 4.09,6.1 8.58,12.09 11.92,18.38l-5.64 4.87c-2.82,-9.26 -69.84,-103.57 -80.88,-120.05 -12.95,-19.34 -13.93,-29.09 -39.75,-29.09 -5.16,0 -8.33,1.72 -11.69,3.49 0.64,7.66 105.92,123.21 117.2,135.85 11.73,13.14 12.58,12.35 12.58,24.71 -45.12,-51.65 -90.91,-102.67 -136,-154.37 -2.79,-3.23 -3.17,-1.97 -4.3,-6.19 5.96,-8.85 23.26,-23.71 28.96,-29.36 19.01,-18.83 46.4,-37 72.24,-44.46 11.87,-3.43 37.07,-8.79 49.63,-8.79l0 84.93z"/>
 </g>
</svg>
