<?xml version="1.0" encoding="UTF-8"?>
<!DOCTYPE svg PUBLIC "-//W3C//DTD SVG 1.1//EN" "http://www.w3.org/Graphics/SVG/1.1/DTD/svg11.dtd">
<!-- Creator: CorelDRAW 2019 (64-Bit) -->
<svg xmlns="http://www.w3.org/2000/svg" xml:space="preserve" width="20px" height="20px" version="1.1" style="shape-rendering:geometricPrecision; text-rendering:geometricPrecision; image-rendering:optimizeQuality; fill-rule:evenodd; clip-rule:evenodd"
viewBox="0 0 6009.1 6816.35"
 xmlns:xlink="http://www.w3.org/1999/xlink"
 xmlns:xodm="http://www.corel.com/coreldraw/odm/2003">
 <defs>
  <style type="text/css">
   <![CDATA[
    .fil0 {fill:#555555}
   ]]>
  </style>
 </defs>
 <g id="Слой_x0020_1">
  <metadata id="CorelCorpID_0Corel-Layer"/>
  <path class="fil0" d="M1317.52 1965.33c0,401.74 509.24,896.25 582.61,1211.22l168.66 0c-61.02,-228.46 -582.62,-943.42 -582.62,-1088.57 0,-127.94 154.22,-426.74 357.92,-51.27 62.43,125.04 523.05,1040.22 531.34,1139.84l183.98 0c-14.26,-61.22 -613.28,-1281.32 -613.28,-1333.88 0,-247.21 267.82,-285.22 408.97,20.33 139.19,301.31 262.84,650.27 388.29,960.92 0,-297.93 62.65,-211.37 -50.57,-501.39 -54.16,-138.73 -225.41,-562.88 -225.41,-663.84 0,-211.58 475.3,-263.47 475.3,61.33l0 229.98 183.98 0c0,-245.05 -38.69,-459.96 260.64,-459.96 109.26,0 214.65,63.45 214.65,183.98 0,104.11 -245.79,682.76 -245.31,689.94l46 306.64c5.13,-61.73 321.13,-878.32 403.2,-961.34 144.8,-146.47 317.4,-9.4 317.4,118.09 0,166.05 -557.9,1111.55 -613.28,1349.21l183.98 0c7.74,-93.06 508.14,-1112.71 569.8,-1208.72 151.17,-235.41 319.46,-49.55 319.46,120.15 0,151.78 -520.39,855.49 -582.61,1088.57l168.65 0c75.31,-323.3 582.61,-817.53 582.61,-1211.22 0,-961.9 -860.19,-1379.87 -1710.38,-1379.87 -854.71,0 -1723.98,407.39 -1723.98,1379.87zm4154.96 1287.88l-1962.5 0c0,264.73 -26.2,166.11 249.15,440.79 36.34,36.26 107.04,86.38 112.58,146.19 6.2,67.07 -71.11,118.29 -147.08,118.29 -81.07,0 -254.56,-164.29 -352.64,-229.98l0 1916.49c122.47,10.19 227.59,44.05 383.3,-30.66 -28.03,-120.31 -93.57,-227.84 -122.65,-352.64 55.2,4.59 35.43,-26.17 87.02,96.96 157.82,376.63 152.86,334.05 357.61,317 -5.35,-64.29 -197.56,-323.71 -245.32,-413.96 102.95,2.3 196.36,210.21 254.5,297.46 101.61,152.47 148.23,223.83 389.44,223.83 235.18,0 383.3,-144.7 383.3,-383.3l-37.27 54.73c-139.82,197.75 -418.67,126.27 -586.82,-74.57 -67.16,-80.23 -188.99,-216.11 -234.5,-302.12 99.03,-147.89 46.41,-248.6 -117.52,-342.44 -43.77,-25.06 -87.16,-36.2 -127.8,-71.52 241.16,0 512.81,-153.97 551.96,-321.97 245.62,0 368.03,-10.26 459.96,-183.98l-613.28 0c58.55,-87.43 90.9,-61.76 229.96,-61.35 323.37,0.96 699.24,57.68 720.63,-199.3l-766.6 0c58.3,-87.05 86.21,-61.45 260.64,-61.33 128.03,0.09 561.76,18.53 649.27,-25.33 125.61,-62.97 112.68,-163 132.66,-204.64l-919.92 0c57.02,-85.15 79.37,-62.09 214.59,-61.38 177.68,0.93 750.18,10.86 852.83,-5.76 438.14,-70.94 481.1,-314.56 481.1,-668.79 -11.22,12.91 -7.87,5.03 -18.5,27.49 -32.92,69.52 -35.1,156.39 -165.02,248.94 -87.53,62.36 -203.38,106.86 -353.1,106.86zm-2529.77 2299.79l0 -1379.87 137.99 0 0 1379.87c0,74.88 -16.13,107.73 -61.33,137.99 -63.01,-16.83 -76.65,-58.83 -76.65,-137.99zm-214.65 -1594.53c0,454.85 0,909.7 0,1364.54 0,345.18 -19.19,565.91 156.03,855.88 37.37,61.84 87.93,154.75 165.94,186.7 12.65,-47.39 82.32,-159.48 107.15,-214.82 147.73,-329.2 122.82,-502.4 122.82,-858.42 0,-434.41 0,-868.82 0,-1303.22 -34.99,-0.42 -60.69,-19.53 -61.32,-61.33 1.21,-37.79 30.06,-61.48 61.32,-61.33l0 -199.31c-486.78,0 -265.73,-26.1 -385.73,181.55 -38.18,66.07 -83.9,90.58 -166.22,109.76zm145.67 -743.61c18.63,109.25 -12.67,84.34 329.62,84.34 119.7,0 90.53,-686.17 72.31,-823.57 -2.9,-21.85 -12.27,-81.93 -18.66,-119.33 -18.66,-109.24 12.74,-84.34 -329.63,-84.34 -57.82,0 -53.35,73.47 -70.36,190.28 -37.96,260.7 -27.56,493.09 16.72,752.62zm-1096.25 2629.45c96.36,143.89 424.72,413.16 579.06,540.17 116.98,96.27 611.27,443.84 684.96,431.53 73.68,12.31 567.98,-335.26 684.96,-431.53 154.34,-127.02 482.7,-396.28 579.06,-540.17 -28.89,-13.87 -80.2,-37.1 -100.8,-69 -98.43,111.21 -413.08,382.44 -554.92,501.85 -101.43,83.39 -506.55,384.15 -608.3,380.56 -101.75,3.59 -506.87,-297.17 -608.3,-380.56 -141.83,-119.41 -456.48,-390.64 -554.92,-501.85 -20.6,31.89 -71.91,55.13 -100.8,69zm-1134.56 -2039.15c2.31,103.91 110.84,382.7 148.75,479.86 238.03,610.03 363.91,735.85 679.17,1206.65 49.78,-1.11 104.6,-14.64 137.99,-30.67l-263.65 -380.29c-158.12,-252.85 -337.12,-595.1 -439.84,-878.71 -78.71,-217.28 -51.92,-285.47 -262.43,-396.85zm2008.49 -214.65l735.93 0 0 -199.32 -735.93 0 0 199.32zm122.66 -1425.88c75.33,6.27 56.17,30.67 122.66,30.67l352.63 0c0,-193.83 40.51,-153.32 -475.29,-153.32l0 122.66zm-2237.43 1088.57l1962.5 0c0,264.73 26.2,166.11 -249.15,440.79 -36.34,36.26 -107.04,86.38 -112.58,146.19 -6.2,67.07 71.11,118.29 147.08,118.29 81.07,0 254.56,-164.29 352.64,-229.98l0 1916.49c-122.47,10.19 -227.59,44.05 -383.3,-30.66 28.03,-120.31 93.57,-227.84 122.65,-352.64 -33.31,-0.3 -35.43,-26.17 -87.02,96.96 -157.82,376.63 -152.86,334.05 -357.61,317 5.35,-64.29 197.56,-323.71 245.32,-413.96 -102.95,2.3 -196.36,210.21 -254.5,297.46 -101.61,152.47 -148.23,223.83 -389.44,223.83 -235.18,0 -383.3,-144.7 -383.3,-383.3l37.27 54.73c139.82,197.75 418.67,126.27 586.82,-74.57 67.16,-80.23 188.99,-216.11 234.5,-302.12 -99.03,-147.89 -46.41,-248.6 117.52,-342.44 43.77,-25.06 87.16,-36.2 127.8,-71.52 -241.16,0 -512.81,-153.97 -551.96,-321.97 -245.62,0 -368.03,-10.26 -459.96,-183.98l613.28 0c-58.55,-87.43 -90.9,-61.76 -229.96,-61.35 -323.37,0.96 -699.24,57.68 -720.63,-199.3l766.6 0c-58.3,-87.05 -86.21,-61.45 -260.64,-61.33 -128.03,0.09 -561.76,18.53 -649.27,-25.33 -125.61,-62.97 -112.68,-163 -132.66,-204.64l919.92 0c-57.02,-85.15 -79.37,-62.09 -214.59,-61.38 -177.68,0.93 -750.18,10.86 -852.83,-5.76 -438.14,-70.94 -481.1,-314.56 -481.1,-668.79 11.22,12.91 7.87,5.03 18.5,27.49 32.92,69.52 35.1,156.39 165.02,248.94 87.53,62.36 203.38,106.86 353.1,106.86zm5102.78 -981.25c0,310.76 0.98,433.38 -34.93,746.99 -17.57,153.4 7.36,142.26 -149.05,142.26 39.51,-559.63 106.35,-745.55 0.05,-1257.27 -169.54,-676.35 -664.14,-1208.5 -1277.5,-1512.92 -708.33,-351.56 -1564.6,-351.56 -2272.93,0 -613.35,304.42 -1107.96,836.57 -1277.5,1512.92 -106.31,511.71 -39.46,697.64 0.05,1257.27 -156.41,0 -131.48,11.14 -149.05,-142.26 -35.92,-313.61 -34.93,-436.23 -34.93,-746.99 0,-876.99 728.74,-1723.24 1508.89,-2048.13 716.71,-298.46 1461.32,-298.46 2178.03,0 780.16,324.89 1508.89,1171.13 1508.89,2048.13zm-199.31 1533.2c-2.32,103.91 -110.84,382.7 -148.75,479.86 -238.03,610.03 -363.91,735.85 -679.17,1206.65 -49.78,-1.11 -104.6,-14.64 -137.99,-30.67l263.64 -380.29c158.12,-252.85 337.12,-595.1 439.84,-878.71 78.7,-217.28 51.92,-285.47 262.43,-396.85z"/>
 </g>
</svg>
