<?xml version="1.0" encoding="UTF-8"?>
<!DOCTYPE svg PUBLIC "-//W3C//DTD SVG 1.1//EN" "http://www.w3.org/Graphics/SVG/1.1/DTD/svg11.dtd">
<!-- Creator: CorelDRAW 2019 (64-Bit) -->
<svg xmlns="http://www.w3.org/2000/svg" xml:space="preserve" width="20px" height="20px" version="1.1" style="shape-rendering:geometricPrecision; text-rendering:geometricPrecision; image-rendering:optimizeQuality; fill-rule:evenodd; clip-rule:evenodd"
viewBox="0 0 281.27 352.5"
 xmlns:xlink="http://www.w3.org/1999/xlink"
 xmlns:xodm="http://www.corel.com/coreldraw/odm/2003">
 <defs>
  <style type="text/css">
   <![CDATA[
    .fil0 {fill:#555555}
   ]]>
  </style>
 </defs>
 <g id="Слой_x0020_1">
  <metadata id="CorelCorpID_0Corel-Layer"/>
  <g id="_2298105416976">
   <path class="fil0" d="M149.08 179.19c0.21,-2.47 2.3,-6.73 3.28,-12.87 3.18,-19.78 -11.72,-29.04 -0.91,-39.83 16.83,-16.81 16.99,-24.97 23.53,-41.09 6.5,21.88 -22.02,45.52 -22.27,49.73 -0.17,2.9 10.93,34.32 -3.64,44.07zm-5.14 69.03c-5,-1.17 -6.7,-3.41 -10.81,-4.67 -4.11,-1.26 -4.49,0.69 -5.89,-0.65 -1.41,-1.34 -1.65,-4.3 -2.39,-5.7 -12.77,0 -5.69,13.22 -2.94,13.95l0 -7.34c8.35,0.7 23.59,8.6 27.17,13.95 -1.01,4.32 -1.26,5.14 -6.61,5.14 4.27,5.82 25.56,-2.19 12.47,-11.74 -6.61,-4.83 -3.61,-10.92 1.94,-7.13 3.07,2.09 5.42,9.09 9.08,10.06 0.85,-3.64 4.2,-6.77 5.14,-10.28 1.79,0.86 11.26,2.88 13.95,2.94l-6.61 -11.75 9.55 0c-2.05,-3.87 -8.7,-12.26 -9.55,-15.42l4.41 0c-4.54,-4.93 -14.24,-14.05 -17.63,-19.09l8.81 0 -6.77 -7.19 14.11 -0.16c-1.45,-2.74 -4.5,-5.7 -5.14,-8.08 6.49,0 17.21,-2.34 20.56,-7.34 -1.95,-2.66 -6.87,-4.69 -8.81,-7.34 4.83,0 18.95,0.91 20.56,-5.14 -2.27,-0.61 -9.81,-5.7 -11.02,-7.34 2.53,0 19.6,2.48 22.03,-6.61 -3.25,-0.76 -11.14,-4.9 -13.95,-7.34 6.45,-1.5 19.64,-3.1 19.83,-11.75 -1.38,-0.66 -14.56,-2.89 -16.89,-2.94 5.21,-3.3 18.46,-9.55 19.83,-15.42l-19.09 0c6.72,-4.81 21.11,-13.8 21.3,-22.03 -5.25,1.22 -18.86,8.49 -22.77,8.81 3.51,-5.24 18.35,-15.25 19.83,-33.05 -3.31,2.22 -20.25,16.95 -22.77,17.63 3.01,-11.28 23.67,-23.82 13.08,-46.68 -1.2,5.16 -15.19,29.03 -18.22,31.26 2.42,-10.37 17.23,-38.16 2.94,-47.73 -3.63,7.56 -3.61,28.18 -9.55,36.72 0,-11.72 6.15,-36.53 -8.08,-44.06 0,7.05 -0.46,37.32 -5.14,44.06 0,-12.43 -1.93,-26.95 -13.22,-34.52 0,15.61 3.76,35.2 -0.3,53.31 -3.78,16.89 -8.57,25.8 -19.01,38.27 -2.02,2.42 -4.65,4.75 -6.95,7 -6.51,6.39 -5.75,12.88 -1.9,21.37 1.65,3.63 2.92,7.06 3.76,10.93 1.91,8.86 1.04,18.02 -2.27,24.57 -4.79,9.48 -10.04,13.08 -12.25,16.39l11.75 0c-2.75,2.52 -10.19,7.91 -11.02,11.02 2.5,0.21 11.92,3.43 13.95,4.41 -1.21,1.66 -11.94,7.61 -13.95,8.08 1.86,6.97 9.2,6.61 14.69,6.61 -1.09,1.48 -2.35,2.39 -4.41,2.94 0.79,3.4 2.43,5.78 6.61,5.88 0.64,-2.73 2.46,-6.65 4.41,-8.08 0,13.87 -3.78,18.85 -13.33,6.72 -8.51,-10.81 -10.55,0.32 -7.24,7.24 1.37,-1 3.17,-3.25 3.67,-5.14 1.16,1.82 -0.08,2.39 4.96,6.79 2.63,2.29 4.04,2.68 6.05,5.7z"/>
   <path class="fil0" d="M65.36 69.03c-9.24,-6.77 -14.06,-24.23 -30.84,-24.23 3.22,6.08 20.38,27.41 21.3,30.84 -10.38,-5.49 -10.2,-10.44 -23.5,-7.34 0.63,2.37 2.7,2.89 6.84,6.38 16.86,14.21 32.85,38.4 32.82,61.18 -0.01,8.34 -0.91,18.78 1.55,24.89 3.66,9.09 13.32,14.14 21.45,18.94 7.58,4.47 8.54,7.68 12.79,4.51 3.82,-2.84 7.8,-6.49 11.94,-8.68l0 6.61c3.75,-1.98 6.86,-4.92 11.48,-6.14 3.05,-0.81 8.59,0.8 5.6,-11.67 -6.3,-16.68 -6.07,-12.06 -6.07,-30.65 -2.89,1.94 -5.39,5.05 -8.81,7.34 1.83,-7.88 4.41,-7.04 4.41,-20.56 -3.35,0.89 -4.29,4.81 -8.08,7.34 0.48,-5.71 5.88,-9.39 2.94,-22.03 -3.72,1.35 -7.39,10.56 -11.02,13.22 0.12,-5.31 8.53,-33.05 -0.73,-33.05 -0.19,2.28 -4.3,13.61 -5.87,15.42 0.8,-9.57 3.61,-33.3 -5.88,-39.66 -0.77,1.61 -3.76,24.14 -4.41,27.17 -0.77,-4.59 0.61,-40.46 -16.16,-41.86 0,9.85 3.67,25.71 3.67,33.05 -5.06,-11.62 -13.07,-37.86 -27.91,-38.19 1.07,4.61 11.55,23.14 12.48,27.17z"/>
   <path class="fil0" d="M5.87 39.66c3.91,-4 6.66,-4.78 13.7,-8.33 7.04,-3.55 31.96,-12.59 46.21,-16.21 24.81,-6.3 49.1,-8.29 74.48,-9.24 37.94,0 103.13,16.29 120.94,25.2 17.81,8.91 11.83,6.48 14.19,7.11l0 165.23c0.01,24.55 -6.42,45.26 -19.71,63.27 -9.19,12.45 -17.6,21.72 -29.71,31.98 -22.82,19.33 -47.16,32.57 -74.68,43.56 -12.36,4.94 -10.28,5.05 -30.14,-3.66 -6.46,-2.83 -13,-5.66 -19.08,-8.82l-17.31 -9.87c-18.38,-11.26 -38.83,-27.52 -52.56,-44.37 -16.96,-20.82 -26.39,-43.34 -26.32,-70.61l0 -165.24zm-5.87 -3.67l0 178.45c0,33.89 23.09,61.68 45.7,84.28 19.07,18.86 45.25,32.05 69.11,43.99 3.22,1.55 22.84,9.79 25.46,9.79 16.5,0 78.01,-37.83 90.14,-49.39 10.97,-10.05 20.6,-19.53 29.45,-31.51 9.98,-13.52 21.41,-36.19 21.41,-57.17l0 -178.45c0,-3.37 -9.43,-7.75 -27.07,-14.79 -17.64,-7.04 -67.4,-21.19 -105.12,-21.19 -37.72,0 -66.5,4.38 -90.18,10.43 -7.34,1.88 -58.9,18.23 -58.9,25.55z"/>
   <path class="fil0" d="M188 196.08l-11.75 0c2.99,4.46 4.06,4.64 5.87,8.08l-8.08 0c4.13,3.11 8.07,6.05 12.35,8.95 11.37,7.7 9.85,10.14 25.84,10.14 -4.75,-4.13 -10.94,-7.84 -16.16,-11.75 4.23,0.09 16.56,7.57 21.3,10.28 3.55,0 3.29,-1.87 7.34,-2.2l-23.65 -12.92c5.49,-0.35 20.14,6.67 28.05,8.51 0.87,-0.58 2.24,-1.55 2.99,-2.15 1.84,-1.46 1.45,-0.38 2.15,-2.99 -2.49,-0.06 -25.83,-6.86 -28.64,-8.81 6.64,0 16.81,2.15 23.92,3.25 17.15,2.65 9.34,-1.49 18.67,-3.98 -0.51,-1.9 -1.28,-2.66 -2.2,-4.41l-38.19 0c1.28,-0.89 0.52,-0.93 4.41,-1.47l26.54 -2.9c6.84,-0.56 1.66,-2.07 0.63,-5.91 -9.73,0 -18.73,2.94 -27.91,2.94 1.88,-2.56 14.15,-4.27 17.69,-5.07 3,-0.58 4.37,-0.31 5.81,-2.27 -10.14,-0.84 2.08,-5.66 -20.56,0 -9.33,2.33 -17.59,4.8 -27.29,5.82 -7.35,0.77 -0.61,3.4 0.85,8.87z"/>
   <path class="fil0" d="M110.89 193.88c0.93,-4.01 3.47,-6.28 4.41,-10.28 -6.72,4.5 -12.24,10.83 -19.09,15.42l0 -5.14 -14.68 21.3c-2.66,3.78 -4.13,4.68 -4.41,8.07 9.36,0 8.02,-1.02 13.02,-6.07 2.86,-2.89 7.58,-6.13 11.94,-7.15 0,10.56 0.19,14.43 -14.75,16.1 -8.11,0.91 -16.83,-0.11 -16.83,14.01 2.71,1.82 2.55,2.83 7.34,2.94 0,-9.15 10.58,-11.02 18.36,-11.02 -0.36,4.29 -3.09,6.95 -5.87,8.81l0 -5.14c-1.21,1.74 -1.35,3.92 -1.99,5.36 -1.4,3.15 -2.25,1.56 -3.15,4.93 12.02,-1 21.84,-18.33 26.62,-19.65 1.94,-0.54 13.11,-0.18 15.98,-0.18 -1.86,-1.37 -8.08,-4.75 -8.08,-6.61 4.3,-1 8.38,-5.51 12.48,-6.61 -1.53,-2.09 -11.71,-4.45 -14.69,-5.14l11.02 -8.08 -10.28 0c2.21,-3.29 14.34,-11.28 16.16,-19.09 -8.7,0.19 -18.21,9.67 -23.5,13.22z"/>
   <polygon class="fil0" points="113.09,325.33 143.94,305.5 135.86,305.5 163.77,276.86 163.77,290.81 205.63,240.14 170.38,270.25 170.38,256.3 131.45,301.83 131.45,293.02 "/>
   <path class="fil0" d="M125.58 255.56c-6.04,0 -3.57,-0.4 -9.55,-4.41 -3.36,2.25 -12.33,11.59 -14.87,12.3 -2.58,0.72 -22.66,0.18 -26.99,0.18 -0.25,3.02 -0.73,1.64 -0.73,4.41 0,0.68 8.92,10.1 10.28,11.02 -0.74,-3.2 -2.12,-5.72 -2.2,-9.55 14.69,0 40.39,-2.58 17.62,13.22 7.3,0 17.63,-3.32 19.09,-8.81 -2.89,-3.95 -7.74,-4.81 -8.81,-8.81 8.83,-13.19 18.33,19.46 19.83,20.56 0.33,-3.91 3.49,-8.53 4.41,-12.48l6.61 0c-0.23,-2.75 -1.24,-5.58 -1.95,-8.4 -1.34,-5.28 0.37,-3.29 0.48,-8.49 -3.8,-1.01 -5.85,-5.63 -13.22,-7.34l0 6.61z"/>
   <path class="fil0" d="M75.64 259.97l15.42 0c-1.45,-2.16 -3.02,-2.94 -6.61,-2.94 -3.53,0 -6.42,-0.33 -8.81,2.94z"/>
   <path class="fil0" d="M90.33 221.78c4.7,2.64 7.78,-2.24 8.08,-5.88 -2.51,1.33 -7.1,3.18 -8.08,5.88z"/>
   <polygon class="fil0" points="207.09,238.67 207.83,238.67 207.22,237.82 "/>
   <polygon class="fil0" points="207.09,238.67 206.36,239.41 "/>
   <polygon class="fil0" points="206.36,239.41 205.63,240.14 "/>
  </g>
 </g>
</svg>
