<?xml version="1.0" encoding="UTF-8"?>
<!DOCTYPE svg PUBLIC "-//W3C//DTD SVG 1.1//EN" "http://www.w3.org/Graphics/SVG/1.1/DTD/svg11.dtd">
<!-- Creator: CorelDRAW 2019 (64-Bit) -->
<svg xmlns="http://www.w3.org/2000/svg" xml:space="preserve" width="20px" height="20px" version="1.1" style="shape-rendering:geometricPrecision; text-rendering:geometricPrecision; image-rendering:optimizeQuality; fill-rule:evenodd; clip-rule:evenodd"
viewBox="0 0 173.13 216.19"
 xmlns:xlink="http://www.w3.org/1999/xlink"
 xmlns:xodm="http://www.corel.com/coreldraw/odm/2003">
 <defs>
  <style type="text/css">
   <![CDATA[
    .fil0 {fill:#555555}
   ]]>
  </style>
 </defs>
 <g id="Слой_x0020_1">
  <metadata id="CorelCorpID_0Corel-Layer"/>
  <g id="_1732682196064">
   <path class="fil0" d="M85.49 54.22c3.23,-0.86 3.18,-2.79 7.2,0 -3.14,0.73 -3.09,1.81 -5.52,0.98 -1.4,-0.48 -0.95,-0.47 -1.68,-0.98zm-52.19 -21.6c0,5.26 16.64,25.37 20.74,30.55 1.87,2.36 2.37,2.07 2.66,5.44 -12.96,-12 -16.83,-16.12 -26.39,-30.21 -0.43,19.34 -15.08,11.27 20.88,36.62 1.15,0.74 2.15,1.3 2.81,3.49 -8.03,-1.87 -21.67,-12.48 -27,-15.3 0,3.08 0.34,8.11 1.26,10.43 0.98,2.46 1.08,2.12 3.18,3.12l22.55 10.74c-6.55,0 -16.18,-3.93 -22.5,-5.4 1.13,4.84 2.78,8.92 7.72,10.28 4.52,1.25 10.47,2.32 15.68,2.32l0 2.7c-4.4,-0.37 -10.64,-1.8 -15.3,-1.8 9.69,14.47 12.87,4.71 18.9,7.2 -1.67,4.6 -3.28,0.38 -6.3,4.5 2.96,0.69 3.54,1.81 5.79,2.32 3.37,0.76 2.6,-0.42 6.81,-0.52 -0.29,1.64 -0.55,2.06 0,3.6 3.32,0.56 4.21,0.9 9,0.9 3.04,-13.07 22.3,-12.41 25.2,0 3.71,-0.07 5.64,-0.17 9,-0.9 0.67,-1.39 0.33,-2.31 0,-3.6 2.69,0.04 3.39,1.03 5.4,0.9 1.92,0 4.36,-2.04 7.2,-2.7 -1.84,-2.51 -3.49,-2.51 -7.2,-2.7 4.98,-6.8 9.03,7.08 19.8,-9 -6.52,0 -9.01,0.9 -15.3,0.9l0 -2.7c9.28,0 21.57,-0.56 22.5,-11.7 -5.93,1.38 -15.35,5.4 -21.6,5.4l0 -1.8c3.76,-0.88 22.64,-7.78 24.56,-11.43 1.1,-2.08 1.53,-7.86 1.53,-11.07l-19.96 12.45c-2.88,1.81 -4.09,3.31 -7.04,1.95 1.51,-2.06 4.19,-3.41 6.66,-5.04l14.31 -10.88c5.18,-4.33 7.54,-6.18 6.13,-15.24 -1.11,-3.75 -1.41,-4.95 -3.71,-6.64 -1.46,5.48 -19.94,25.27 -25.2,28.8 0.38,-4.59 3.46,-5.75 8.36,-12.34 2.9,-3.9 16.09,-19.98 13.94,-25.18 -1.3,-3.15 -6.43,-10.39 -8.8,-11.98 -1.51,3.15 -1.73,9.01 -5.45,16.15 -3.68,7.07 -16.34,24.97 -21.81,32.19 -1.62,2.13 -3.56,4.02 -4.24,6.56l-1.8 0c-0.56,-2.4 -12.09,-14.63 6.26,-19.41l1.84 -0.38c-1.72,-6.46 -8.11,-4 -10.63,-4.26 -5.79,-0.6 -0.09,-1.77 -12.21,1.22 -3.51,0.89 -6.35,1.39 -9.56,2.14 3.02,4.13 4.5,0.88 4.5,9.9 0,12.31 -6.58,9.19 -1.8,29.7 -2.44,-1.79 -3.25,-5.55 -3.93,-9.63 -1.89,-11.42 5.89,-7.08 -3.66,-19.68 -26.97,-35.57 -18.61,-34.34 -23.91,-45.38 -2.05,1.37 -9.9,11.52 -9.9,14.4z"/>
   <path class="fil0" d="M3.6 23.62c2.66,-0.71 14.94,-8.78 37.06,-14.23 37.33,-9.2 86.05,-6.97 120.71,10.33 2.65,1.32 7.8,2.81 7.8,5.7l0 98.08c0,34.33 -24.45,59.34 -52.49,74.39 -31.4,16.86 -29.51,15.5 -54,3.29 -21.14,-10.53 -42.29,-27.53 -52.81,-48.87 -8.32,-16.88 -6.28,-36.63 -6.28,-61.21 0,-22.5 0,-44.99 0,-67.49zm-3.6 -3.6l-0 105.28c-0.04,30.45 16.2,49.42 39.33,66.85 9.72,7.32 38.54,24.03 47.05,24.03 8.91,0 37.68,-17.52 46.41,-23.78 9.2,-6.6 15.74,-12.96 22.67,-21.42 21.68,-26.47 17.3,-43.05 17.3,-79.88 0,-23.7 0,-47.39 0,-71.09 -3.42,-0.8 -18.92,-9.27 -35.08,-13.51 -39.08,-10.25 -83.34,-8.53 -120.86,6.04 -5.38,2.09 -12.4,6.44 -16.83,7.47z"/>
   <path class="fil0" d="M75.12 149.49c1.89,4.98 0.13,7.39 -3.32,6.75 -2.45,-0.45 -3.9,-1.61 -3.41,-3.04 1.88,1.03 2.61,1.28 5.4,0.9 -2.89,-2.74 -2.83,-3.64 1.33,-4.61zm-13.93 -15.19c1.56,2.94 3,5.27 4.5,8.1 -13.33,3.56 -22.91,32.39 -7.2,32.39 6.03,0 8.1,-4.47 8.1,-9 0,-5.99 -4.32,-4.33 -0.9,-10.8 10.68,7.15 14.23,-1.01 11.7,-6.3 10.78,-2.51 11.84,-7.68 12.45,-8.25 2.64,-2.49 22.43,-11.18 27.81,-13.58 5.16,-2.37 2.57,-2.2 2.96,-4.34 0.07,-0.37 1.22,-0.6 1.52,-1.1 2.42,-4.23 3.59,-0.32 2.06,-6.92 -3.59,0.08 -4.29,0.53 -5.87,-1.41 -0,0 -0.48,0.03 -1.33,0.51 -0.1,4.62 -0.92,3.77 -5.08,5.72 -2.8,1.31 -4.46,2.2 -7.22,3.58 -4.33,2.17 -31.79,17.76 -36.16,15.85 -3.95,-1.73 -2.1,-4.02 -7.33,-4.45z"/>
   <path class="fil0" d="M82.79 148.7l0 27c-6.85,2.97 -10.13,-1.29 -16.2,-2.7l-1.85 3.57c2.12,3.11 6.78,5.04 10.73,6.44 10.16,3.6 7.52,2.63 10.91,6.18 5.33,-7.41 20.83,-7.44 25.6,-18.6 1.82,1.68 1.79,2.04 2.3,4.2 1.23,-5.48 2.19,-15.86 0,-19.8 -1.01,4.35 -5.39,11.39 -9.9,12.6l3.6 0.9c-4.65,6.94 -10.3,8.99 -18,7.2l0 -29.7c-3.86,1.03 -2.21,2.28 -7.2,2.7z"/>
   <path class="fil0" d="M112.46 140.03c-4.17,0 -8.53,-0.08 -12.66,0 -4.06,0.08 -7.85,0.19 -8.91,4.17l21.6 0c1.02,4.39 5.24,10.1 9.95,10.74l21.54 0.06 -10.8 -6.3 0 3.6c-7.67,0 -12.24,1.17 -14.4,-8.1l22.49 0 -1.34 3.77 13.98 -5.86 -13.98 -5.65 1.34 3.57c-3.32,0 -18.12,0 -22.63,0 0.67,-8.06 5.92,-8.43 14.53,-8.43l0 3.6 10.8 -6.3c-6.22,0 -14.79,-0.51 -20.71,-0.02 -5.63,0.46 -9.58,5.92 -10.8,11.15z"/>
   <path class="fil0" d="M75.59 117.2c0,6.12 2.43,7.54 5.1,9.29 1.74,1.14 1.59,-0.44 2.1,4.21 20.54,-4.78 17.34,-23.4 2.7,-23.4 -5.26,0 -9.9,4.64 -9.9,9.9zm10.57 -5.2c3.04,0 5.5,2.46 5.5,5.5 0,3.04 -2.46,5.5 -5.5,5.5 -3.04,0 -5.5,-2.46 -5.5,-5.5 0,-3.04 2.46,-5.5 5.5,-5.5z"/>
   <path class="fil0" d="M22.5 144.2l35.53 0c0.5,0 0.37,-0.3 1.45,-0.82 3.8,-1.8 1.74,-0.36 2.62,-2.78l-1.43 -0.57 -38.15 0 -0.02 4.17z"/>
  </g>
 </g>
</svg>
