<?xml version="1.0" encoding="UTF-8"?>
<!DOCTYPE svg PUBLIC "-//W3C//DTD SVG 1.1//EN" "http://www.w3.org/Graphics/SVG/1.1/DTD/svg11.dtd">
<!-- Creator: CorelDRAW 2019 (64-Bit) -->
<svg xmlns="http://www.w3.org/2000/svg" xml:space="preserve" width="20px" height="20px" version="1.1" style="shape-rendering:geometricPrecision; text-rendering:geometricPrecision; image-rendering:optimizeQuality; fill-rule:evenodd; clip-rule:evenodd"
viewBox="0 0 253.91 285.99"
 xmlns:xlink="http://www.w3.org/1999/xlink"
 xmlns:xodm="http://www.corel.com/coreldraw/odm/2003">
 <defs>
  <style type="text/css">
   <![CDATA[
    .fil0 {fill:#555555}
   ]]>
  </style>
 </defs>
 <g id="Слой_x0020_1">
  <metadata id="CorelCorpID_0Corel-Layer"/>
  <g id="_2298023534432">
   <path class="fil0" d="M60.08 56.63c0,14.7 5.95,33.92 13.09,46.25 1.49,2.58 2.23,3.5 -0.47,5.48 -9.42,-6.9 -17.66,-38.92 -17.66,-49.21 -2.08,1.53 -10.73,12.66 -10.73,18.93 0,7.3 11.73,28.86 17.57,36.06 4.07,5.01 4.47,2.23 3.25,7.47 -8.85,-4.68 -22.06,-27.14 -23.97,-35.33 -11.4,18.06 1.23,33.91 18.66,43.79 3.24,1.84 3.42,0.89 3.42,4.78 -9.29,-0.77 -26.59,-16.27 -28.39,-23.97 -11.24,8.23 8.12,32.81 29.02,32.81 0.06,2.48 -0.17,1.48 0.63,3.15 -12.39,0 -18.68,-3.8 -27.13,-9.46 0.83,9.91 11.21,17.45 22.11,18.27 11.04,0.84 8.42,-2.38 10.7,1.92 -12.41,2.89 -13.47,0.14 -22.71,-0.63 9.86,18.63 26.32,5.29 30.28,9.46 -0.88,2.43 -4.67,3.21 -6.93,3.8l-9.48 1.88c7.37,11.01 19.37,0.38 25.87,1.89 -1.49,5.58 -10.85,4.93 -13.25,8.2 5.06,1.18 8.57,4.69 17.47,0.44 3.71,-1.77 3.28,-3.23 7.13,-2.33 -0.89,3.81 -7.87,7.33 -10.73,7.57 8.19,11.17 19.39,-13.43 32.17,1.26l0 -19.56c-7.58,-0.63 -23.34,-15.13 -23.34,-31.54 0,-11.15 6.6,-14.22 -0.18,-20.64 -22.3,-21.12 -20.64,-51.5 -20.64,-79.04 -4.9,2.59 -15.77,11.16 -15.77,18.3z"/>
   <path class="fil0" d="M12.76 27.61l0 121.13c0,2.02 3.4,3.54 5.05,4.42l0 -122.39 109.14 -25.58c36.39,8.48 72.75,17.1 109.14,25.58l0 122.39c2.27,-1.54 5.05,-2.38 5.05,-4.42l0 -121.13c0,-3.69 -91.18,-22.62 -99.18,-24.47 -13.73,-3.25 -11.64,-4.2 -22.33,-1.77l-104.03 24.03c-1.73,0.45 -2.84,0.22 -2.84,2.21z"/>
   <path class="fil0" d="M241.14 168.3c-1.55,0.74 -2.73,1.21 -5.05,1.26 0,7.02 -2.43,15.65 -5.46,21.66 -9.53,18.89 -21.53,30.68 -37.29,44.73 -7.98,7.12 -31.12,23.45 -39.53,28.6 -4.6,2.82 -23.99,14.78 -26.86,14.78 -2.65,0 -15.07,-7.71 -17.78,-9.34 -16.83,-10.16 -33.26,-21.05 -48.27,-33.74 -14.85,-12.56 -28.58,-27.12 -37.41,-44.6 -3.07,-6.08 -5.68,-14.73 -5.68,-22.08 -2.32,-0.05 -3.5,-0.52 -5.05,-1.26 0,10.11 1.71,17.29 5.04,23.98 4.11,8.27 5.08,10.58 10.82,18.2l16.77 19.19 27.93 23.17c6.74,5.07 49.4,33.16 53.63,33.16 4.23,0 46.89,-28.09 53.63,-33.16 2.79,-2.1 5.47,-4.18 8.2,-6.31l30.1 -27.94c12.37,-14.76 22.27,-29.66 22.27,-50.28z"/>
   <path class="fil0" d="M116.86 63.57l6.94 -3.79c0,44.64 -0.52,91.87 0.02,136.29 0.15,12.29 -6.48,3.05 -6.34,16.37l0.01 22.72 9.46 -9.46 9.46 9.46c0,-7.56 -0.07,-15.16 0.01,-22.72 0.14,-13.33 -6.49,-4.08 -6.34,-16.37l0.02 -136.29 6.94 3.79 -10.09 -25.23 -10.09 25.23z"/>
   <path class="fil0" d="M24.87 170.7l88.83 55.64 0 -5.68c-27.71,-14.66 -59.28,-37.12 -87.06,-54.26 2.8,-2.43 10.64,-6.22 15.77,-13.88 -1.77,-2.65 -3.99,-2.35 -5.05,-6.31 -3.94,1.05 -11.82,15.37 -18.95,11.41 -7.14,-3.95 -17.39,-14.96 -18.27,-15.2 -1.65,19.8 10.91,19.34 24.73,28.27z"/>
   <path class="fil0" d="M89.73 97.64c0.22,2.64 4.16,11.36 5.68,11.36 2.72,0 9.28,-3.79 24.6,-3.79l0 -11.99c-19.76,0 -26.77,3.36 -30.28,4.42z"/>
   <path class="fil0" d="M193.83 56.63c0,14.7 -5.95,33.92 -13.09,46.25 -1.49,2.58 -2.23,3.5 0.47,5.48 9.42,-6.9 17.66,-38.92 17.66,-49.21 2.08,1.53 10.73,12.66 10.73,18.93 0,7.3 -11.73,28.86 -17.57,36.06 -4.07,5.01 -4.47,2.23 -3.25,7.47 8.85,-4.68 22.06,-27.14 23.97,-35.33 11.4,18.06 -1.23,33.91 -18.66,43.79 -3.24,1.84 -3.42,0.89 -3.42,4.78 9.29,-0.77 26.59,-16.27 28.39,-23.97 11.24,8.23 -8.12,32.81 -29.02,32.81 -0.06,2.48 0.17,1.48 -0.63,3.15 12.39,0 18.68,-3.8 27.13,-9.46 -0.83,9.91 -11.21,17.45 -22.11,18.27 -11.04,0.84 -8.42,-2.38 -10.7,1.92 12.41,2.89 13.47,0.14 22.71,-0.63 -9.86,18.63 -26.32,5.29 -30.28,9.46 0.88,2.43 4.67,3.21 6.93,3.8l9.48 1.88c-7.37,11.01 -19.37,0.38 -25.87,1.89 1.49,5.58 10.85,4.93 13.25,8.2 -5.06,1.18 -8.57,4.69 -17.47,0.44 -3.71,-1.77 -3.28,-3.23 -7.13,-2.33 0.89,3.81 7.87,7.33 10.73,7.57 -8.19,11.17 -19.39,-13.43 -32.17,1.26l0 -19.56c7.58,-0.63 23.34,-15.13 23.34,-31.54 0,-11.15 -6.6,-14.22 0.18,-20.64 22.3,-21.12 20.64,-51.5 20.64,-79.04 4.9,2.59 15.77,11.16 15.77,18.3z"/>
   <path class="fil0" d="M229.03 170.7l-88.83 55.64 0 -5.68c27.71,-14.66 59.28,-37.12 87.06,-54.26 -2.8,-2.43 -10.64,-6.22 -15.77,-13.88 1.77,-2.65 3.99,-2.35 5.05,-6.31 3.94,1.05 11.82,15.37 18.95,11.41 7.14,-3.95 17.39,-14.96 18.27,-15.2 1.65,19.8 -10.91,19.34 -24.73,28.27z"/>
   <path class="fil0" d="M164.17 97.64c-0.22,2.64 -4.16,11.36 -5.68,11.36 -2.72,0 -9.28,-3.79 -24.6,-3.79l0 -11.99c19.76,0 26.77,3.36 30.28,4.42z"/>
  </g>
 </g>
</svg>
