<?xml version="1.0" encoding="UTF-8"?>
<!DOCTYPE svg PUBLIC "-//W3C//DTD SVG 1.1//EN" "http://www.w3.org/Graphics/SVG/1.1/DTD/svg11.dtd">
<!-- Creator: CorelDRAW 2019 (64-Bit) -->
<svg xmlns="http://www.w3.org/2000/svg" xml:space="preserve" width="20px" height="20px" version="1.1" style="shape-rendering:geometricPrecision; text-rendering:geometricPrecision; image-rendering:optimizeQuality; fill-rule:evenodd; clip-rule:evenodd"
viewBox="0 0 283.4 339.22"
 xmlns:xlink="http://www.w3.org/1999/xlink"
 xmlns:xodm="http://www.corel.com/coreldraw/odm/2003">
 <defs>
  <style type="text/css">
   <![CDATA[
    .fil0 {fill:#555555}
   ]]>
  </style>
 </defs>
 <g id="Слой_x0020_1">
  <metadata id="CorelCorpID_0Corel-Layer"/>
  <g id="_2299917330160">
   <path class="fil0" d="M65.29 103.76c-2.23,-0.6 -3.32,-1.79 -5.33,-3l-16.89 -10.2c0,4.61 -0.29,10.17 -0.05,14.64 0.21,3.91 1.61,3.94 6.13,8.46 3.72,3.72 12.3,11.44 14.76,15.11 -3.49,-0.81 -18.22,-9.81 -20.84,-10.42l0 15.98c3.3,2.21 17.89,14 20.14,17.37 -3.38,-0.79 -16.19,-8.11 -20.14,-9.03l0 13.89 19.45 15.98c-4.23,-2.06 -14.82,-8.11 -18.75,-9.03 0,4.25 0.5,6.8 1.07,10.74 0.91,6.26 3.69,7.33 11.13,13.18 1.95,1.53 5.26,4.03 6.55,5.96 -4.98,-1.16 -10.3,-5.79 -15.28,-6.95 2.91,34.91 48.18,55.57 79.88,55.57l0 -20.84c-4.32,-0.36 -23.66,-10.21 -21.64,-23.01 0.89,-5.64 4.13,-7.17 4.97,-10.33 -10.58,-2.82 -8.34,-35.61 -8.34,-43.07 0.01,-22.1 -5.13,-53.48 -19.66,-71.33 -11.92,-14.63 -25.83,-20.36 -44.93,-20.36 5.21,7.78 4.54,15.2 5.51,23.67 0.5,4.39 1.18,3.24 3.69,6.04 4.84,5.39 16.1,16.3 18.59,21z"/>
   <path class="fil0" d="M-0 214.2c0,18.82 10.25,36.28 20.83,44.46 6.96,5.38 11.54,8.48 20.74,11.91 18.02,6.71 42.8,7.7 61.14,1.19 7.66,-2.72 11.6,-6.17 18.15,-9.63 0,8.15 -4.3,21.86 -7.17,27.56 -8.83,17.54 -25.18,36.03 -43.62,43.9l-10.61 4.67c-0.5,0.25 -1.34,0.65 -1.81,0.97l168.09 0c-0.83,-0.57 -1.83,-0.95 -2.75,-1.42 -14.19,-6.8 -22.03,-9.63 -34.95,-22 -6.46,-6.19 -13.83,-17.23 -18.1,-25.66 -3.05,-6.04 -7.4,-19.42 -7.4,-28.02 5.97,3.16 7.73,5.93 18.15,9.63 18.34,6.51 43.12,5.52 61.14,-1.19 9.2,-3.43 13.78,-6.53 20.74,-11.91 10.58,-8.18 20.83,-25.64 20.83,-44.46 0,-24.07 -4.47,-35.36 -18.96,-52.59l-19.94 -18.96c0,5.54 -1.13,7.58 2.34,10.16 5.35,3.97 14.24,14.05 18.2,19.31 16.79,22.27 17.29,54.47 -0.29,76.22 -7.4,9.16 -21.3,16.15 -33.02,19.07 -19.83,4.94 -46.84,3.65 -63.15,-8.55 -8.31,-6.22 -9.02,-11.7 -12.3,-14.1 0,27.12 2.25,42.92 18.55,64.8 8.23,11.05 16.05,15.54 25.91,24.11l-118.08 0c21.21,-16.28 35.01,-29.59 42.1,-57.92 2.64,-10.54 2.35,-18.17 2.35,-30.99 -9.46,10.8 -5.21,14.4 -29.25,22.15 -18.26,5.88 -47.28,3.7 -64.13,-6.56 -15.79,-9.62 -23.14,-19.47 -26.86,-37.74 -2.36,-11.61 -1.16,-22.67 2.23,-33.34 1.9,-5.97 5.48,-12.15 8.95,-16.75 3.56,-4.7 13.2,-15.88 18.08,-19.42 3.97,-2.88 2.76,-3.96 2.76,-10.44 -4.68,3.13 -15.97,14.46 -19.62,18.59 -15.19,17.2 -19.28,30.71 -19.28,52.96z"/>
   <path class="fil0" d="M141.7 326.72c1,-4.3 9.72,-15.1 9.72,-30.56l0 -136.14 6.95 0 0 -7.64 -8.34 0 0 -50.01c0,-3.67 2.08,0.78 2.08,-6.95 0,-1.83 -8.62,-7.82 -10.42,-9.03 -1.9,1.27 -10.42,7.23 -10.42,9.03 0,7.73 2.08,3.27 2.08,6.95l0 50.01 -8.34 0 0 7.64 6.95 0 0 136.14c0,15.16 7.28,20.05 9.72,30.56z"/>
   <path class="fil0" d="M98.63 94.03c0.56,-2.1 10.51,-14.36 12.23,-16.94 9.5,-14.31 27,-43.63 30.84,-60.11 8.86,26.03 23.4,50.83 39.98,72.5 1.27,1.66 2.51,2.43 3.08,4.56 0.71,-8.54 5.82,-2.69 -0.59,-11.21 -9.63,-12.8 -19.76,-28.89 -26.74,-43.42 -4.97,-10.35 -13.22,-28.59 -15.73,-39.4 -6.36,27.3 -26.07,58.85 -42.17,82.42 -6.65,8.85 -1.6,3.08 -0.89,11.61z"/>
   <path class="fil0" d="M218.1 103.76c2.23,-0.6 3.32,-1.79 5.33,-3l16.89 -10.2c0,4.61 0.29,10.17 0.05,14.64 -0.21,3.91 -1.61,3.94 -6.13,8.46 -3.72,3.72 -12.3,11.44 -14.76,15.11 3.49,-0.81 18.22,-9.81 20.84,-10.42l0 15.98c-3.3,2.21 -17.89,14 -20.14,17.37 3.38,-0.79 16.19,-8.11 20.14,-9.03l0 13.89 -19.45 15.98c4.23,-2.06 14.82,-8.11 18.75,-9.03 0,4.25 -0.5,6.8 -1.07,10.74 -0.91,6.26 -3.69,7.33 -11.13,13.18 -1.95,1.53 -5.26,4.03 -6.55,5.96 4.98,-1.16 10.3,-5.79 15.28,-6.95 -2.91,34.91 -48.18,55.57 -79.88,55.57l0 -20.84c4.32,-0.36 23.66,-10.21 21.64,-23.01 -0.89,-5.64 -4.13,-7.17 -4.97,-10.33 10.58,-2.82 8.34,-35.61 8.34,-43.07 -0.01,-22.1 5.13,-53.48 19.66,-71.33 11.92,-14.63 25.83,-20.36 44.93,-20.36 -5.21,7.78 -4.54,15.2 -5.51,23.67 -0.5,4.39 -1.18,3.24 -3.69,6.04 -4.84,5.39 -16.1,16.3 -18.59,21z"/>
  </g>
 </g>
</svg>
