<?xml version="1.0" encoding="UTF-8"?>
<!DOCTYPE svg PUBLIC "-//W3C//DTD SVG 1.1//EN" "http://www.w3.org/Graphics/SVG/1.1/DTD/svg11.dtd">
<!-- Creator: CorelDRAW 2019 (64-Bit) -->
<svg xmlns="http://www.w3.org/2000/svg" xml:space="preserve" width="20px" height="20px" version="1.1" style="shape-rendering:geometricPrecision; text-rendering:geometricPrecision; image-rendering:optimizeQuality; fill-rule:evenodd; clip-rule:evenodd"
viewBox="0 0 198.84 238.05"
 xmlns:xlink="http://www.w3.org/1999/xlink"
 xmlns:xodm="http://www.corel.com/coreldraw/odm/2003">
 <defs>
  <style type="text/css">
   <![CDATA[
    .fil0 {fill:#555555}
   ]]>
  </style>
 </defs>
 <g id="Слой_x0020_1">
  <metadata id="CorelCorpID_0Corel-Layer"/>
  <g id="_2298028164704">
   <path class="fil0" d="M42.53 102.18c9.52,-2.22 20.06,-14.12 24.07,-24.53 1.84,-4.76 2.99,-9.66 2.99,-15.24l59.65 0c0,9.57 3.47,18.2 8.6,25.64 3.17,4.59 12.56,12.75 18.46,14.13 -1.85,9.69 -5.02,20.89 -7.66,28.24 -7.08,19.69 -19.72,40.68 -37.52,52.51 -12.05,8.01 -11.4,8.01 -23.09,0.22 -2.14,-1.43 -3.23,-2.22 -5.12,-3.72 -33.07,-26.25 -38.64,-73.6 -40.39,-77.25zm48.05 -96.66c0,1.32 -1.01,3.46 3.87,3.87l0 26.51 -11.6 0 0 5.52 9.94 0 0 15.46 -28.72 0c0,11.47 -2.47,20.12 -7.33,26.92 -4.4,6.16 -12.92,12.79 -20.29,14.51 0,7.59 4.52,23.23 6.97,30.59 5.61,16.89 12.65,29.29 23.09,42.64 3.69,4.73 6.53,6.67 9.3,9.48 4.55,4.62 11.31,8.74 16.98,11.74 0,10.99 0.74,18.32 3.31,28.17 0.82,3.13 2.63,5.33 3.32,8.28l0.55 0c1.17,-5.04 3.08,-7.04 4.58,-16.4 1.05,-6.51 1.49,-12 1.49,-20.05 5.75,-3.04 17.72,-11 21.63,-15.93 6.33,-7.98 9.91,-10.51 15.93,-21.63 7.54,-13.93 12.04,-24.66 15.91,-40.42 1.14,-4.64 2.87,-11.18 2.87,-16.47 -7.31,-1.7 -15.63,-8.14 -20.05,-14.19 -5.02,-6.86 -7.56,-15.57 -7.56,-27.23l-28.72 0 0 -15.46 9.94 0 0 -5.52 -11.6 0 0 -26.51c4.88,-0.41 3.87,-2.55 3.87,-3.87 -0.91,-0.44 -1.9,-0.47 -2.5,-0.82 -2.78,-1.62 0.49,-4.7 -6.89,-4.7 -5.22,0 -3.07,2.66 -5.44,4.5 -0.92,0.71 -1.57,0.42 -2.84,1.03z"/>
   <path class="fil0" d="M45.29 20.44c0,25.58 -14.01,48.28 -35.72,60.38 -3.36,1.87 -6.29,2.67 -9.57,4.24 0,9.37 9.68,42.16 12.63,50.33 12.99,35.95 33.48,70.03 65.8,91.62 3.19,2.13 18.05,11.05 20.99,11.05 1.26,0 9.19,-3.97 10.67,-4.79 48.69,-27.24 75.83,-81.27 86.4,-134.53 0.77,-3.86 2.35,-9.77 2.35,-13.67 -20.25,-9.72 -33.09,-18.18 -41.09,-41.2 -2.91,-8.39 -4.2,-16.24 -4.2,-26.18l-44.74 0 0 4.42 39.77 0c1.45,17.43 6.23,29.97 13.91,41.32 5.24,7.75 21.25,22.17 30.83,24.4 0,12.76 -11.62,46.12 -16.41,58.15 -10.06,25.28 -28.2,53.15 -49.39,69.91 -5.99,4.74 -15.82,11.6 -22.75,14.81 -7.15,3.32 -5.54,2.45 -15.29,-2.59 -30.18,-15.58 -55.21,-51.04 -67.39,-81.74 -4.8,-12.1 -16.57,-45.66 -16.57,-58.55 2.66,-0.62 6.85,-3.18 9.22,-4.59 8.05,-4.79 16.36,-12.05 21.61,-19.81 7.68,-11.36 12.46,-23.89 13.91,-41.32l39.77 0 0 -4.42 -44.74 0 0 2.76z"/>
   <path class="fil0" d="M95.55 111.02l0 6.08c2.28,0.19 16.02,5.21 16.02,7.73l0 23.75c0,2.58 -1.29,3.87 -3.87,3.87l-16.02 0 0 -66.28 15.47 0c5.87,0 4.42,5.44 4.42,13.81 0,1.53 -2.18,2.4 -3.42,3.21l-12.6 7.84zm-24.3 -30.38l0 5.52 7.73 0 0 66.28c-2.72,0.63 -5.14,2.55 -7.73,2.76l0 4.42 49.16 0c3.85,0 6.63,-3.75 6.63,-7.73l0 -29.27c0,-4.3 -4.37,-4.68 -7.94,-5.87 -3.6,-1.2 -7.35,-2.71 -10.84,-3.52l15.12 -9.19c1.7,-1.03 3.11,-2.75 3.11,-5.17l0 -16.02c0,-1.96 -3.43,-3.87 -5.52,-3.87l-45.29 0c-2.61,0 -2.21,1.07 -4.42,1.66z"/>
  </g>
 </g>
</svg>
