<?xml version="1.0" encoding="UTF-8"?>
<!DOCTYPE svg PUBLIC "-//W3C//DTD SVG 1.1//EN" "http://www.w3.org/Graphics/SVG/1.1/DTD/svg11.dtd">
<!-- Creator: CorelDRAW 2019 (64-Bit) -->
<svg xmlns="http://www.w3.org/2000/svg" xml:space="preserve" width="84.5434mm" height="100mm" version="1.1" style="shape-rendering:geometricPrecision; text-rendering:geometricPrecision; image-rendering:optimizeQuality; fill-rule:evenodd; clip-rule:evenodd"
viewBox="0 0 216.52 256.11"
 xmlns:xlink="http://www.w3.org/1999/xlink"
 xmlns:xodm="http://www.corel.com/coreldraw/odm/2003">
 <defs>
  <style type="text/css">
   <![CDATA[
    .fil0 {fill:#555555}
   ]]>
  </style>
 </defs>
 <g id="Слой_x0020_1">
  <metadata id="CorelCorpID_0Corel-Layer"/>
  <g id="_2297871367856">
   <path class="fil0" d="M45.8 86.25c7.01,-3.71 17.12,-13.23 20.82,-20.22 2.67,0.62 4.72,2.21 7.38,3.32 18.32,7.67 48.53,7.68 66.9,0.17 2.41,-0.99 5.28,-2.91 7.81,-3.49 3.72,7.02 13.81,16.52 20.82,20.22 -2.4,4.54 -4.21,11.36 -4.17,18.44 0.18,33.73 1.57,63.82 -27.61,86.6 -5.95,4.64 -23.95,15.72 -30.09,15.72 -6.14,0 -23.95,-11.02 -29.75,-15.46 -29.42,-22.5 -28.07,-52.98 -27.95,-86.26 0.03,-7.56 -1.59,-14.16 -4.17,-19.03zm54.73 -77.92l4.16 0 -2.97 37.48c-5.41,0 -7.52,0.05 -12.65,1.03 -9.58,1.83 -8.17,0.2 -8.17,8.49 6.47,0 10.37,-4.54 19.63,-2.38l0 15.47c-7.47,0 -13.8,-1.59 -19.85,-3.35 -6.5,-1.9 -10.61,-5.18 -15.84,-7.95 -1.87,7 -19.46,24.47 -26.77,26.17 0.25,2.97 2.3,5.95 3.34,8.56 7,17.64 -4.26,53.13 12.97,82.2 1.74,2.94 2.9,4.46 4.75,7.15 4.97,7.26 11.07,12.42 18.03,17.66 5.22,3.93 17.08,10.85 23.37,12.32 0,23.72 3.93,19.36 7.73,35.69 4.04,-17.33 7.73,-12.43 7.73,-36.29 7.48,-0.62 23.37,-12.75 29.49,-17.5 3.91,-3.03 8.17,-8.26 10.96,-12.24 24.59,-35.04 9.36,-68.54 17.48,-89 1.04,-2.61 3.09,-5.59 3.34,-8.56 -7.94,-1.85 -25.01,-19.6 -26.77,-26.17 -10.47,5.54 -18.88,11.3 -34.5,11.3l0 -15.47c9.2,-2.14 13.17,2.38 19.63,2.38 0,-8.47 1.36,-6.59 -7.67,-8.39 -5.44,-1.08 -7.5,-1.13 -13.15,-1.13 0,-11.68 -1.91,-25.8 -2.97,-37.48l4.16 0c0,-10.27 -3.88,-2.02 -5.35,-8.33l-4.76 0c-1.46,6.28 -5.35,-1.87 -5.35,8.33z"/>
   <path class="fil0" d="M-0 49.37c0.49,2.12 1.86,4.33 2.81,6.71 3.02,7.63 5.53,15.05 5.54,24.2 0.05,35.97 -2.79,72.91 12.86,105.51 8.21,17.1 20.81,32.56 35.22,43.3 3.9,2.91 7.32,5.44 11.5,8.13 7.76,4.98 34.79,18.88 40.34,18.88 5.68,0 32.16,-13.75 39.97,-18.65 19.98,-12.53 36.51,-29.64 47.08,-51.66 21.84,-45.5 7.32,-92.87 15.5,-121.91 0.81,-2.88 1.76,-4.93 2.73,-7.38 0.87,-2.19 2.5,-5.09 2.98,-7.14 -11.59,-6.13 -23.67,-16.45 -31.44,-26.85 -1.76,-2.35 -7.13,-9.27 -7.81,-11.82 -1.34,0.11 -9.14,4.86 -12.49,6.55 -12.22,6.17 -24.73,8.32 -38.4,10.38 -7.68,1.16 -8,-2.02 -8,5.68 10.81,0 22.61,-2.49 31.41,-4.88 13.85,-3.76 23.97,-10.13 25.7,-10.59 7.3,13.8 21.97,25.52 34.5,33.91 -3.78,7.15 -7.21,19.3 -7.15,30.33 0.21,36.39 2.25,68.77 -11.9,100.53 -5.14,11.53 -14.22,24.04 -23.03,32.88 -5.65,5.67 -14.43,12.12 -20.98,16.5 -7.3,4.88 -32.97,18.44 -38.66,18.44 -3.26,0 -23.04,-9.25 -26.36,-11.11 -7.31,-4.09 -21.84,-12.98 -27.63,-18.77 -6.56,-6.57 -5.56,-4.08 -14.01,-14.54 -5.72,-7.09 -10.42,-14.22 -14.49,-22.99 -23.63,-50.95 -2.28,-99.23 -19.23,-131.26 10.63,-7.12 19.59,-13.58 27.37,-23.78 2.34,-3.07 5.29,-6.66 7.13,-10.12 1.54,0.41 4.35,2.18 5.95,2.97 14.76,7.35 34.26,12.49 51.16,12.49 0,-7.81 1.32,-3.94 -15.81,-6.79 -5.74,-0.95 -10.73,-2.17 -15.97,-3.66 -5.21,-1.48 -9.79,-3.17 -14.22,-5.41l-12.88 -6.75c-1.32,4.95 -12.93,17.99 -16.8,21.86 -6.73,6.73 -13.91,12.28 -22.46,16.8z"/>
   <path class="fil0" d="M107.67 105.29l12.49 41.64 -26.17 0 13.68 -41.64zm-15.47 -19.63c0,3.63 10.11,1.31 10.11,4.76 0,6.73 -21.75,61.62 -27.36,77.33l-5.95 0c-1.93,2.89 -1.78,0.3 -1.78,6.54l23.79 0c0,-5.49 0.58,-5.95 -4.76,-5.95 0.32,-3.82 3.22,-9.62 4.16,-13.68l32.72 0c1.2,5.77 2.03,7.06 3.57,13.68 -5.1,0 -4.76,0.17 -4.76,5.95l27.96 0c0,-6.31 0.46,-5.95 -6.54,-5.95l-26.17 -84.47 -24.98 0 0 1.78z"/>
  </g>
 </g>
</svg>
