<?xml version="1.0" encoding="UTF-8"?>
<!DOCTYPE svg PUBLIC "-//W3C//DTD SVG 1.1//EN" "http://www.w3.org/Graphics/SVG/1.1/DTD/svg11.dtd">
<!-- Creator: CorelDRAW 2018 -->
<svg xmlns="http://www.w3.org/2000/svg" xml:space="preserve" width="43.3492mm" height="43.3492mm" version="1.1" style="shape-rendering:geometricPrecision; text-rendering:geometricPrecision; image-rendering:optimizeQuality; fill-rule:evenodd; clip-rule:evenodd"
viewBox="0 0 4334.92 4334.92"
 xmlns:xlink="http://www.w3.org/1999/xlink">
 <defs>
  <style type="text/css">
   <![CDATA[
    .fil0 {fill:#555555}
   ]]>
  </style>
   <clipPath id="id0">
    <rect x="6.03" y="14.5" width="4334.92" height="4334.92"/>
   </clipPath>
 </defs>
 <g id="Слой_x0020_1">
  <g id="_841242672">
   <path class="fil0" d="M1098.23 2825.42l0 -1667.92 2150.52 0 0 1667.92c0,242.75 -116.63,460.47 -273.03,615.97 -54.41,54.11 -148.03,129.04 -213.04,167.96 -56.84,34.03 -105.18,57.49 -169.43,84.57 -62.43,26.31 -126.22,46.49 -193.18,60.82 -166.13,35.55 -287.03,35.55 -453.16,0 -430.76,-92.19 -848.68,-463.65 -848.68,-929.32zm-272.97 -1653.02c42.84,62.96 205.23,193.76 205.23,247.56l0 1354.66c0,51.17 -199.26,228.91 -243.41,273.05l-264.58 260.35c23.56,35.2 383.21,387.37 450.84,455.09 23.36,23.37 40.05,52.29 74.09,61.38l302.77 -298.36c28.77,19.94 52.88,42.07 78.13,61.39 80.74,61.78 153.31,112.64 251.65,154.75 341.33,146.18 645.69,146.18 987.02,0 177.14,-75.86 215.85,-139.18 327.75,-214.11l302.72 306.88 529.11 -524.92 -385.21 -380.98c-23.44,-23.44 -124.88,-109.03 -124.88,-137.58l0 -1413.93c0,-32.04 166.57,-169.61 177.8,-211.67l-311.18 -315.35c-23.28,20.37 -241.09,239.15 -264.56,239.15l-1507.06 0c-24.12,0 -53.95,-41.18 -69.77,-57.22 -25.98,-26.34 -42.79,-34.77 -67.98,-59.02 -49.65,-47.79 -75.21,-82.01 -133.18,-120.82l-315.3 319.7z"/>
   <path class="fil0" d="M1208.29 3070.96l62.83 123.43c25.38,43.27 49.9,77.97 79.77,114.97 163.85,202.97 487.32,388.13 780.27,388.13 268.66,0 467.34,-61.01 656.84,-198.29 218.23,-158.1 248.36,-234.85 350.69,-428.24 -238.89,0 -202.62,110.06 -338.67,110.06 -109.92,0 -127.88,-107.17 -307.08,-113.89 -153.52,-5.76 -196.14,113.89 -310.98,113.89 -111.94,0 -142.65,-114.33 -304.74,-114.08 -169.85,0.27 -183.77,114.08 -330.26,114.08 -92.72,0 -126.03,-132.31 -338.67,-110.06z"/>
   <path class="fil0" d="M2105.76 302.37c0,62.77 4.96,58.69 16.93,110.06 -88.9,-47.04 -135.79,41.26 -143.93,76.2 46.28,0 68.91,-0.56 95.84,22.69 57.34,49.5 67.09,188.98 -70.44,188.98 -34.99,0 -61.93,-21.03 -76.2,-42.34 12.93,-48.43 25.4,-6.93 25.4,-67.73 0,-73.65 -118.54,-98.08 -118.54,16.93 0,27.18 23.55,40.07 50.8,42.34 -3.57,160.48 -289.4,96.61 -164.76,-71.63 9.85,-13.3 7.31,-2.57 12.36,-21.5 -109.98,-58.2 -96.25,1.94 -152.39,16.93 -6.03,-72.41 -72.3,-84.67 -135.47,-84.67 76.83,145.2 141.15,297.8 172.56,462.43 6.67,34.96 -2.91,62.5 30.64,62.5l1049.86 0c32.96,0 24.51,-39.89 47.32,-130.48 40.81,-162.07 81.15,-253.22 155.88,-394.45 -63.17,0 -129.44,12.26 -135.47,84.67 -30.59,-8.17 -13.69,-5.85 -37.75,-21.51 -42.16,-27.44 -51.44,-28.87 -114.64,4.58 4.32,16.21 2.72,8.09 8.75,16.63l7.51 9.44c1.07,1.36 2.94,3.05 4.03,4.43 110.2,138.97 -168.83,235.99 -172.69,62.63 76.06,-6.33 66.88,-118.53 -8.47,-118.53 -56.55,0 -59.27,35.98 -59.27,76.19 0,29.43 15.02,11.9 25.4,50.8 -78.99,117.96 -271.76,-24.47 -151.01,-142.55 27.1,-26.5 49.41,-26.78 100.21,-26.78 -8.07,-34.64 -53.93,-123.82 -143.93,-76.2 20.42,-87.66 41.12,-167.04 -50.8,-228.6 -36.69,24.57 -67.73,57.33 -67.73,118.54z"/>
   <path class="fil0" d="M1614.69 2165.03c0,34.33 7.84,43.85 33.87,50.8 -20.67,88.69 -59.24,166.7 -151.13,196.11 -74.81,23.95 -149.2,1.78 -171.6,-60.32 -11.92,-33.05 49,-127.33 -49.8,-127.33 -76.77,0 -91,116.32 8.46,118.54 2.64,31.73 31.23,112.23 41.26,145.01 16.14,52.73 30.26,125.92 60.34,125.92l575.73 0c47.13,0 72.96,-232.39 111.53,-269.48 16.33,-15.7 40.87,-14.67 40.87,-60.72 0,-81.33 -118.53,-81.33 -118.53,0 0,34.33 7.84,43.85 33.87,50.8 -40.75,77.01 -91.14,116 -197.68,70.68 -79.86,-33.96 -113.71,-108.46 -132.52,-189.21 54.91,-14.67 47.53,-110.07 -25.4,-110.07 -39.53,0 -59.27,19.74 -59.27,59.27z"/>
   <path class="fil0" d="M2622.22 2165.03c0,34.33 7.84,43.85 33.87,50.8 -11.87,50.96 -20.27,84.01 -49.32,120.01 -103.43,128.23 -243.9,97.58 -273.41,15.78 -11.92,-33.05 49,-127.33 -49.8,-127.33 -76.77,0 -91,116.32 8.46,118.54 5.1,61.25 74.92,213.53 76.2,270.93l626.53 0c0.69,-30.91 61.39,-248.85 90.86,-273.21 122.3,-101.07 -82.39,-174.27 -82.39,-56.99 0,34.33 7.84,43.85 33.87,50.8 -21.97,41.51 -23.82,59.68 -73.63,79.17 -111.57,43.67 -222.29,-50.54 -256.57,-197.7 54.91,-14.67 47.53,-110.07 -25.4,-110.07 -39.53,0 -59.27,19.74 -59.27,59.27z"/>
   <path class="fil0" d="M2122.69 1369.16c0,34.33 7.84,43.85 33.87,50.8 -60.41,259.28 -285.52,238.93 -322.73,135.8 -11.93,-33.05 49,-127.33 -49.81,-127.33 -76.76,0 -90.99,116.32 8.47,118.53 3.27,39.26 48.71,164.55 64.36,215.04 8.73,28.16 8.93,55.89 37.24,55.89l575.73 0c47.13,0 72.96,-232.38 111.52,-269.47 16.33,-15.71 40.88,-14.67 40.88,-60.72 0,-81.34 -118.53,-81.34 -118.53,0 0,34.33 7.83,43.84 33.87,50.8 -22.03,41.62 -23.7,59.52 -73.54,79.08 -83.49,32.77 -161.1,-17.01 -211.04,-82.37 -26.54,-34.72 -34.71,-68.42 -45.62,-115.25 54.91,-14.66 47.53,-110.06 -25.4,-110.06 -39.53,0 -59.27,19.74 -59.27,59.26z"/>
   <path class="fil0" d="M3350.35 3892.22c50.6,13.51 75.8,59.27 220.14,59.27 225.08,0 477.38,-249.56 304.79,-575.73 -38.87,10.38 -353.38,340.68 -395.81,383.11 -36.03,36.03 -104.28,96.26 -129.12,133.35z"/>
   <path class="fil0" d="M412.43 3570.49c0,202.02 160.51,381 338.66,381 76.47,0 187.42,-11.52 228.6,-67.74l-438.14 -450.84c-22.36,-22.42 -37.13,-48.42 -69.85,-57.15 -26.34,49.77 -59.27,119.3 -59.27,194.73z"/>
   <path class="fil0" d="M3178.98 757.52l423.28 427.47 131.14 -127.04c-69.41,-47.39 -381.02,-402.81 -433.85,-416.92l-120.57 116.49z"/>
   <polygon class="fil0" points="605.07,1062.27 723.8,1176.33 1151.12,753.19 1032.38,639.13 "/>
   <path class="fil0" d="M495.01 816.74l135.63 131.02c38.96,-11.94 273.29,-256.7 289.79,-281.33l-133.42 -137.52 -292 287.83z"/>
   <path class="fil0" d="M3407.58 630.52c11.24,36.49 113.21,125.91 143.86,156.56 39.46,39.46 114.93,123.78 154.51,150.28l129.05 -124.95c-17.12,-24.94 -270.3,-288.62 -306.85,-298.38l-120.57 116.49z"/>
   <polygon class="fil0" points="1877.16,1978.76 2486.76,1978.76 2486.76,1885.63 1877.16,1885.63 "/>
   <polygon class="fil0" points="1369.16,2774.62 1978.76,2774.62 1978.76,2681.49 1369.16,2681.49 "/>
   <polygon class="fil0" points="2376.69,2774.62 2986.29,2774.62 2986.29,2681.49 2376.69,2681.49 "/>
  </g>
 </g>
</svg>
