<?xml version="1.0" encoding="UTF-8"?>
<!DOCTYPE svg PUBLIC "-//W3C//DTD SVG 1.1//EN" "http://www.w3.org/Graphics/SVG/1.1/DTD/svg11.dtd">
<!-- Creator: CorelDRAW 2018 -->
<svg xmlns="http://www.w3.org/2000/svg" xml:space="preserve" width="43.3492mm" height="43.3492mm" version="1.1" style="shape-rendering:geometricPrecision; text-rendering:geometricPrecision; image-rendering:optimizeQuality; fill-rule:evenodd; clip-rule:evenodd"
viewBox="0 0 4334.92 4334.92"
 xmlns:xlink="http://www.w3.org/1999/xlink">
 <defs>
  <style type="text/css">
   <![CDATA[
    .fil0 {fill:#555555}
   ]]>
  </style>
   <clipPath id="id0">
    <rect x="8.46" y="8.46" width="4334.92" height="4334.92"/>
   </clipPath>
 </defs>
 <g id="Слой_x0020_1">
  <metadata id="CorelCorpID_0Corel-Layer"/>
  <g style="clip-path:url(#id0)">
  </g>
  <g id="_617479144">
   <path class="fil0" d="M1286.92 2472.25l524.93 0c1.34,-60.08 54.12,-183.58 59.27,-245.53l524.93 0 -64.08 -232.25c-18.29,-55.11 -108.64,-108.53 -156.05,-140.28 -33.14,22.19 -209.9,170.54 -237.07,177.8l76.2 -279.4c0,-10.67 -207.58,-157.59 -228.6,-186.27l287.87 0 110.07 -304.8 93.13 304.8 287.87 0c-22.24,30.34 -237.07,173.03 -237.07,186.27l106.79 358.87c17.35,51.71 104.15,328.35 104.88,360.79l524.93 0c-2.99,-35.93 -26.88,-93.43 -39.14,-130.19l-133.39 -400.01c-30.98,-92.89 -55.99,-176.63 -86.74,-268.86l-264.58 -802.21c-30.42,-91.6 -61.39,-170.06 -114.53,-241.07 -90.31,-120.68 -280.7,-163.77 -410.12,-78.22l-67.85 59.15c-112.75,123.33 -171.64,344.68 -230.93,522.61l-430.72 1338.8z"/>
   <path class="fil0" d="M2506.12 440.26c159.68,0 468.67,148.04 606.03,232.16 880.2,539.04 1107.6,1765.99 474.13,2575.19 -93.74,119.74 -98.69,118.2 -201.74,221.59 -133.2,133.63 -331.3,256.1 -505.65,332.55 -430.5,188.77 -968.73,194.99 -1400.13,2.66 -365.13,-162.79 -690.9,-446.99 -872.12,-804.28 -327.14,-645.01 -248.17,-1376.67 185.56,-1928.53 186.45,-237.24 439.54,-424.92 722.01,-539.52 63.54,-25.78 248.81,-91.82 331.51,-91.82 -58.36,87.15 -122.52,101.3 -199.94,324.99l-486.93 1468.86c-12.48,37.43 -35.59,93.55 -45.24,133.63 -12.72,52.85 33.52,73.55 46.31,121.45l16.94 0c1.04,-46.63 346.61,-1078.05 369.33,-1146.2 32.4,-97.15 60.73,-182.21 93.14,-279.39 64.27,-192.76 115.64,-374.99 238.82,-523.18 18.24,-21.94 77.32,-65.3 105.76,-80.5 149.15,-79.73 299.14,-64.68 432.67,27.55 77.61,53.61 123.49,129.73 165.88,215.11 36,72.5 69.46,196.36 98.26,282.74 32.82,98.42 63.88,191.6 95.25,285.75 63.76,191.34 124.5,381.73 188.43,573.57 26.4,79.24 184.15,530.43 185.18,576.81l16.94 0c28.89,-108.21 89.15,17.54 3.19,-240.26l-169.33 -516.46c-65.01,-194.96 -294.31,-917.32 -347.47,-1024.13 -21.85,-43.92 -38.06,-67.52 -63.64,-105.69 -27.49,-41.04 -58.99,-58.57 -83.15,-94.65zm0 0l0 0zm-660.4 0l0 0zm-1523.99 1735.66c0,1019.73 834.46,1854.19 1854.19,1854.19 1019.73,0 1854.19,-834.46 1854.19,-1854.19 0,-1019.88 -834.62,-1854.19 -1854.19,-1854.19 -1019.57,0 -1854.19,834.31 -1854.19,1854.19z"/>
   <path class="fil0" d="M3555.98 2616.19l0 0zm-16.93 -143.94l0 0zm-143.93 -76.2l2.52 2.53c-0.16,-0.17 -3.37,-1.69 -2.52,-2.53zm160.86 -143.93l2.53 2.52c-0.17,-0.16 -3.37,-1.68 -2.53,-2.52zm16.94 -16.93l0 0zm-67.74 -118.54c0,-21.65 13.41,-1.36 5.04,0 -0.1,0.02 -5.04,23.64 -5.04,0zm50.8 499.54c0.84,-1.25 211.17,-230.33 271,-313.2 22.38,-30.98 78.46,-99.34 50.73,-127.07 -48.44,-23.25 -71.24,22.32 -93.08,50.85l-150.27 171.46c-16.86,19.24 -74.3,68.41 -95.31,74.02l182.87 -248.92c70.47,-105.71 65.74,-102.04 116.67,-205.12 49.05,-99.27 -33.66,-133.19 -86.53,-52.61l-179.14 269.59 49.52 -136.75c18.13,-48.72 37.33,-96.23 50.4,-144.33 16.02,-58.98 48.83,-181.7 32.51,-240.8 -9.44,-34.16 -24.19,-36.92 -64.7,-36.92 -7.99,34.28 -17.54,69.87 -26.99,108.47 -8.27,33.74 -17.97,68.18 -29.22,106.25 -11.71,39.6 -20.09,61.31 -32.03,103.44l-24.84 76.76c-0.97,2.51 -3.86,9.77 -4.9,12.03 -7.92,17.22 -2.82,7.45 -9.02,16.38 0.72,-32.21 11.36,-73.61 15.53,-103 7,-49.37 34.41,-193.19 -23.99,-193 -40.59,0.13 -34.6,49.1 -41.49,85.19 -26.25,137.48 -73.7,254.94 -127.85,363.21 -60.57,121.11 -153.08,268.6 -247.58,362.02 -64.14,63.42 -121.33,125.42 -192.59,179.94 -447.53,342.35 -599.97,186.59 -819.32,408.35l-118.5 127.02c-101.2,89.82 -189.46,88.64 -236.96,127.11 -31.28,25.34 -44.51,32.89 -44.51,82.49 68.97,16.07 37.29,-19.46 135.46,-42.33 -16.95,35.33 13.16,65.92 -111.45,64.54 -25.36,-0.28 -21.47,-7.23 -49.41,-13.74 -33.35,49.8 -33.87,45.47 -33.87,127 19.4,-7.03 6.63,-1.63 19.92,-13.95 31.3,-29.02 5.67,-18.54 56.28,-45.32 -2.39,28.76 -6.45,30.99 -16.93,50.8 35.97,-8.38 54.11,-25.33 99.38,-36.09 30.41,-7.22 85.61,-6.25 129.22,-6.25 96.24,0 163.32,8.36 262.47,8.48 103.67,0.12 157.84,-7.45 231.22,-39.71 43.95,-19.33 135.11,-86.62 158.24,-121.16 -31.6,8.43 -63.07,36.77 -93.12,50.81 -75.36,35.21 -158.18,54.97 -239.28,65.52 -62.62,8.15 -94.69,-5.22 -141.73,-6.27 9.56,-35.8 14.78,-15.67 42.33,-67.73l-118.36 10.17c6.32,-26.14 45.22,-69.95 67.56,-103.3l-76.2 0c54.99,-103.93 232.86,-227.39 330.2,-270.93 73.58,-32.92 193.37,-63.12 327.77,-120.97 214.12,-92.18 361.08,-217.44 521.02,-376.44l179.16 -201.84c15.11,-19.67 20.3,-24.93 38.85,-37.35 -13.46,57.76 -54.75,140.38 -59.27,194.73 38.45,0.86 59.34,12 84.67,25.4 0,118.85 -190.07,242.96 -220.14,287.86 43.52,0.97 24.31,-7.66 42.34,16.94 -14.59,54.64 -180.18,164.54 -237.07,177.8l0 16.93c78.94,1.76 195.6,136.25 -79.65,191.28 -28.11,5.62 -39.71,9.02 -65.29,10.91 -45.33,3.37 -38.02,-9.69 -58.26,17.94 105.19,0 148.72,30.88 275.99,-20.34 40.37,-16.25 70.7,-34.99 103.49,-57.37 20.17,-13.77 26,-21.49 42.79,-33.42 30.66,-21.77 33.91,-5.76 43.4,-41.27 -19.54,-26.66 -80.19,-35.67 -122.06,-55.74l-16.53 -8.87c-1.14,-0.63 -3.65,-1.94 -5.35,-3.12 56.34,0 89.79,-4 141.53,-10.87 37.06,-4.92 91.34,-19.83 129.41,-23l0 -16.93c-52.85,-12.31 -83.1,-25.4 -152.4,-25.4l0 -8.47c51.99,0 224.08,-31.52 254,-76.2l-177.8 -8.46c1.78,-1.13 4.75,-4.52 5.67,-2.79l104.43 -31.04c74.12,-20.43 240.14,-94.23 136.5,-102.3 -36.86,-2.87 -96.24,16.7 -136.54,17.59 23.44,-20.37 116.47,-66.8 193.65,-128.08 66.38,-52.71 136.55,-110.56 136.55,-193.65 -73.18,1.63 -149.78,80.69 -203.2,93.14z"/>
   <path class="fil0" d="M728.12 2412.99l0 0zm16.94 -194.74l0 0zm0 0c-36.41,-26.67 -122.26,-192.2 -160.95,-253.91 -26.45,-42.18 -40.99,-46.08 -93.05,-33.95 -30.47,130.78 222.38,427.61 237.06,482.6 -82.39,-55.17 -125.97,-129.44 -188.29,-201.18 -74.92,-86.22 -110.8,-31.93 -76.55,25.31 12.42,20.77 24.1,39.26 36.16,57.42 89.25,134.48 96.3,121.14 166.92,205.61 48.27,57.74 81.08,76.31 87.16,99.1 -88.85,-1.98 -98.51,-74.43 -177.8,-76.2 2.55,114.08 203.74,213.42 287.91,262.43l25.36 16.97c-86.47,0 -219.93,-26.32 -146.31,35.25 22.47,18.8 55.32,29.78 91.74,36.26 43.81,7.79 68.81,13.11 105.37,21.62 -24.97,34.08 -80.06,23.88 -118.53,42.34 3.87,10.71 -11.59,21.77 64.02,37.57 25.28,5.29 64.77,12.7 88.38,13.23l0 16.93c-32.88,2.74 -53.14,13.2 -76.2,25.4 15.62,43.16 129.85,64.45 169.33,67.73l-76.2 33.87c15.81,21.58 185.1,110.99 212.04,126.63 55.12,31.98 183.69,87.65 245.16,101.97 -11.88,-16.22 -144.87,-85.26 -169.45,-101.48 -29.71,-19.6 -136.51,-95.1 -152.28,-118.65 36.81,-3.07 84.2,-10.12 101.6,-33.87 -38.48,-8.96 -73.71,-42.96 -102.88,-66.45 -70.19,-56.53 -191.05,-223.07 -210.39,-306.08 22.45,11.88 80.65,45.2 101.6,50.8 -54.23,-102.49 -67.73,-166.43 -67.73,-321.73 22.33,25.69 76.22,181.37 188.21,294.38 37.63,37.97 84.33,89.98 123.72,121.82 225.18,182.01 430.45,231.74 707.72,274.68 73.33,11.36 65.2,2.92 146.89,-57.74 10.42,-7.74 10.92,-8.25 18.79,-15.08 -171.11,-14.24 -375.85,-44.29 -525.08,-118.39 -77.52,-38.5 -136.76,-68.82 -203.06,-118.67 -99.24,-74.61 -168.19,-147.57 -243.2,-247.86 -68.9,-92.11 -129.48,-210.9 -172.97,-318.1 -36.08,-88.93 -94.06,-268.7 -111.1,-371.5 -15.92,-96.04 -13.5,-102.79 -65.39,-103.94 -44.17,83.48 0,210.54 0,296.33 -7.73,-8.9 -3.3,0.52 -13.4,-20.46 -43.02,-89.34 -76.35,-342.89 -105.13,-402.87l-42.34 0c-42.6,80.52 -19.98,184.15 4.95,282.92 21.54,85.32 85.9,231.45 88.19,258.94z"/>
   <path class="fil0" d="M1879.59 2573.85l-651.93 0c5.94,22.27 25.11,40.56 40.78,60.82 21.19,27.42 22.68,32.13 68.57,33.02l610.31 -0.7c12.99,-55.78 64.51,-206.78 67.73,-245.54l321.74 0 50.43 186.64c6.52,25.73 5.54,50.43 34.23,50.43l524.93 0c24.8,0 80.75,-66.17 93.14,-84.67l-567.27 0 -50.43 -186.63c-6.52,-25.73 -5.54,-50.43 -34.23,-50.43l-423.34 0c-32.42,0 -34.12,50.38 -50.8,110.06 -11.72,41.95 -23.62,83.03 -33.86,127z"/>
   <path class="fil0" d="M2683.92 3632.18l0 0zm0 0c48.25,25.53 107.88,86.53 148.05,64.28 32.41,-17.96 -49.06,-89.51 -71.85,-123.54 47.89,11.15 101.25,41.63 154.8,49.36 58.62,8.45 112.27,-36.84 116.13,-83.23 -93.96,-2.09 -312.7,-106.53 -368.06,-72.33 -27.83,17.2 -33.21,34.57 -53.23,57.44 -209.37,239.2 -515.83,132.73 -634.53,186.73 -21.76,9.9 -51.79,26.76 -66.69,43.38 -11.32,12.62 -43.29,59.17 -33.09,77.64 24.3,43.99 107.66,-42.88 148.07,-64.26 0,190.52 74.92,20.74 118.53,-8.47 0,42.67 -29.22,126.81 41.8,85.62 24.52,-14.23 40.6,-61.42 76.74,-85.62l0 84.67c50.5,-4.2 74.46,-57.82 84.66,-101.6l16.94 0c7.05,30.27 20.49,60.2 42.33,76.2 21.94,-16.08 47.79,-56.98 50.8,-93.13 41.5,27.79 43.38,65.17 84.67,76.2 34.44,-25.24 42.33,-75.57 42.33,-135.47 26.97,19.76 47.1,79.71 81.21,89.85 53.47,15.89 21.05,-93.9 20.39,-123.72z"/>
  </g>
 </g>
</svg>
