<?xml version="1.0" encoding="UTF-8"?>
<!DOCTYPE svg PUBLIC "-//W3C//DTD SVG 1.1//EN" "http://www.w3.org/Graphics/SVG/1.1/DTD/svg11.dtd">
<!-- Creator: CorelDRAW X7 -->
<svg xmlns="http://www.w3.org/2000/svg" xml:space="preserve" width="415px" height="415px" version="1.1" style="shape-rendering:geometricPrecision; text-rendering:geometricPrecision; image-rendering:optimizeQuality; fill-rule:evenodd; clip-rule:evenodd"
viewBox="0 0 415 415"
 xmlns:xlink="http://www.w3.org/1999/xlink">
 <defs>
  <style type="text/css">
   <![CDATA[
    .fil0 {fill:#555555;}
   ]]>
  </style>
   <clipPath id="id0">
    <rect x="2" y="2" width="415" height="415"/>
   </clipPath>
 </defs>
 <g id="Слой_x0020_1">
  <metadata id="CorelCorpID_0Corel-Layer"/>
  <g id="_248314928">
   <path class="fil0" d="M197 233c0,-21 9,-23 11,-30l1 0c2,6 4,4 7,14 3,7 4,7 4,16 -5,-1 -9,-4 -11,-4 -3,0 -7,3 -12,4zm24 -35c5,-2 9,-3 14,-6 13,-7 16,-26 34,-28 0,10 6,23 -2,34 -10,15 -25,15 -38,7 -2,-2 -6,-5 -8,-7zm-72 -34c17,2 20,20 32,28 5,3 10,4 14,6 -8,13 -42,22 -49,-9 -1,-9 2,-19 3,-25zm-20 -2c0,19 11,34 11,41 -3,1 -6,5 -14,6 0,7 -1,7 9,14 20,15 28,2 35,3 11,1 9,19 9,33 3,-1 6,-1 9,-2l0 -12c3,0 4,-1 7,-1l0 12 9 0 0 -15c6,-1 3,-1 8,0l0 15 9 0 0 -12c4,0 5,1 9,1l0 12c2,1 5,1 9,2 0,-12 -3,-33 9,-33 5,0 15,12 34,-2 10,-8 8,-7 8,-15 -6,-1 -10,-6 -13,-6 0,-5 1,-6 2,-10 9,-19 13,-36 1,-55 -14,-20 -39,-33 -65,-33 -23,0 -45,2 -61,16 -11,8 -25,23 -25,41z"/>
   <path class="fil0" d="M93 275c0,-3 13,-16 17,-18 10,2 18,15 18,26 0,12 -10,22 -26,22 -9,0 -14,-4 -18,-7 1,-3 0,-2 0,-5 14,1 8,5 29,0 0,-11 -2,-4 -10,-8 -3,-1 -10,-7 -10,-10zm-63 -51c0,2 4,4 6,5 3,-10 12,-16 19,-20 4,-1 8,-1 11,-3 4,22 9,9 -1,24 -20,29 -24,45 -24,83 0,27 9,53 29,69 22,18 59,15 59,-21 0,-10 -7,-20 -19,-20 -8,0 -15,6 -23,-5 -3,-5 -6,-17 -6,-25 26,12 59,5 59,-24 0,-12 0,-17 -6,-28 -4,-6 -10,-9 -12,-12 3,-3 10,-8 12,-11 -1,-2 -18,-14 -18,-18 0,-15 -1,-13 6,-16 3,-2 4,-3 7,-4 -2,-5 -4,-13 -7,-19 -3,2 -6,5 -9,7l-17 15c-4,2 -5,4 -9,7 -1,-1 -3,-8 -3,-8 0,-5 12,-16 12,-20l0 -6c-27,0 -45,7 -58,31 -2,3 -8,14 -8,19z"/>
   <path class="fil0" d="M305 293c20,5 14,1 27,0 1,3 0,2 2,5 -10,6 -10,7 -23,7 -28,0 -29,-43 -3,-48 3,2 15,15 15,18 0,3 -6,8 -8,10 -9,4 -10,-3 -10,8zm17 -119c0,10 0,9 4,14 8,11 9,10 5,20 -7,-4 -30,-25 -36,-29 -3,6 -5,14 -8,19 4,1 5,2 8,3 7,4 6,2 6,17 0,2 -11,12 -13,14 -3,1 -4,1 -5,4 2,3 9,8 13,11 -2,2 -4,3 -7,5 -21,20 -15,64 19,64 12,0 18,-1 29,-5 0,7 -4,19 -7,24 -7,11 -14,6 -25,6 -18,0 -24,30 -9,43 18,18 50,7 66,-19 19,-29 18,-77 5,-110 -3,-7 -5,-11 -9,-17 -2,-3 -3,-5 -5,-8 -11,-14 -6,-4 -1,-24 3,2 8,1 17,8 5,3 10,8 11,15 11,-3 5,-15 -2,-26 -8,-14 -16,-21 -32,-26 -5,-1 -19,-4 -24,-3z"/>
   <path class="fil0" d="M239 99c9,1 29,12 35,19 3,3 6,6 10,8l48 -38c3,-3 5,-4 8,-7 2,-1 7,-5 9,-6 -3,-5 -10,-13 -12,-18 4,0 18,-11 22,-14 3,-2 5,-4 8,-4 -2,-4 -13,-18 -15,-19l-28 19c-18,12 -38,28 -56,40 -5,3 -26,17 -29,20z"/>
   <path class="fil0" d="M51 39l29 18c-1,4 -8,12 -11,18l32 25c11,9 22,17 33,26 5,-3 8,-9 18,-16 6,-3 18,-10 25,-11 -1,-2 -23,-17 -27,-20l-85 -59c-2,1 -14,15 -14,19z"/>
   <path class="fil0" d="M150 242c1,4 3,7 4,12 4,27 -9,15 17,34 7,5 11,11 15,18 7,8 10,13 23,13 19,0 22,-20 37,-31 26,-19 13,-7 17,-33 1,-6 3,-9 3,-13 -6,-1 -11,-5 -18,-6 0,9 7,31 -9,42l0 -12c-3,-2 -6,-2 -9,-3l0 21c-4,0 -4,0 -9,0l0 -22 -9 0 0 25 -8 0 0 -25 -9 0 0 24c-1,-1 -5,-2 -7,-2l0 -21c-4,1 -7,1 -9,3l0 12c-18,-11 -11,-34 -11,-42 -6,1 -11,5 -18,6z"/>
   <path class="fil0" d="M350 84c1,5 2,4 4,7 19,21 33,53 39,80 8,36 4,70 -7,105 -2,6 -1,15 -1,23l3 0c0,-3 5,-12 7,-17 25,-63 13,-138 -27,-191 -4,-4 -6,-9 -10,-11 -3,1 -4,4 -8,4z"/>
   <path class="fil0" d="M12 203c0,27 1,50 11,76 2,5 5,14 9,17 0,-5 0,-8 0,-12 1,-3 2,-6 1,-10 -4,-16 -7,-18 -10,-39 -6,-53 6,-92 36,-136l10 -12c-2,-1 -3,-2 -5,-3 -1,-2 -2,-2 -4,-3 -4,3 -14,17 -18,23 -17,26 -30,65 -30,99z"/>
   <path class="fil0" d="M110 39c2,3 4,4 9,6 3,0 6,-2 9,-4 3,-1 6,-3 10,-4 45,-19 97,-19 142,-1 4,2 15,6 19,9 5,-3 7,-3 9,-7 -8,-2 -42,-26 -90,-26 -46,0 -69,6 -108,27z"/>
   <path class="fil0" d="M128 391c35,19 90,22 128,12 14,-3 28,-9 34,-11 -1,-3 -1,-1 -3,-4 -2,-2 -2,-3 -3,-5 -7,2 -19,8 -35,11 -7,2 -12,2 -19,3l-21 2 -41 -5c-14,-4 -31,-11 -34,-12 -2,5 -4,5 -6,9z"/>
  </g>
 </g>
</svg>
