<?xml version="1.0" encoding="UTF-8"?>
<!DOCTYPE svg PUBLIC "-//W3C//DTD SVG 1.1//EN" "http://www.w3.org/Graphics/SVG/1.1/DTD/svg11.dtd">
<!-- Creator: CorelDRAW X7 -->
<svg xmlns="http://www.w3.org/2000/svg" xml:space="preserve" width="445px" height="445px" version="1.1" style="shape-rendering:geometricPrecision; text-rendering:geometricPrecision; image-rendering:optimizeQuality; fill-rule:evenodd; clip-rule:evenodd"
viewBox="0 0 445 445"
 xmlns:xlink="http://www.w3.org/1999/xlink">
 <defs>
  <style type="text/css">
   <![CDATA[
    .fil0 {fill:#555555;}
   ]]>
  </style>
   <clipPath id="id0">
    <rect x="4" y="3" width="445" height="445"/>
   </clipPath>
 </defs>
 <g id="Слой_x0020_1">
  <metadata id="CorelCorpID_0Corel-Layer"/>
  <g id="_245882736">
   <path class="fil0" d="M306 83l34 45c15,20 34,51 44,74 17,36 34,91 18,132 -7,20 -21,36 -38,47 -17,11 -17,9 -28,14 0,-10 -6,-27 -9,-35 -8,-21 -22,-38 -42,-48 -9,-4 -21,-11 -34,-11l34 117c2,5 4,12 6,16l-127 0 37 -133c-25,0 -55,22 -67,44 -8,14 -15,33 -16,49 -7,0 -22,-10 -27,-13 -15,-10 -30,-26 -37,-44 -18,-42 0,-99 15,-135 6,-14 12,-27 20,-39l24 -37c-5,-1 -7,-2 -11,-3 -1,3 -4,6 -6,9l-17 28c-32,55 -69,159 -16,212 11,10 14,13 27,21 7,4 26,13 36,13 0,-34 25,-82 61,-90l-19 64c-3,11 -6,21 -9,32 -3,11 -7,21 -9,32l152 0c-1,-4 -24,-87 -26,-95l-9 -32c15,1 34,19 42,33 6,8 8,14 12,25 3,8 7,22 7,31 12,0 38,-14 49,-22 63,-48 42,-123 17,-184 -7,-17 -27,-52 -38,-66l-45 -59c-2,3 -4,6 -5,8z"/>
   <path class="fil0" d="M298 235l0 0zm6 -9l0 0zm-106 -79l0 0zm-27 -31l0 0zm127 119c-5,-1 -10,-2 -15,-3 -9,-2 -25,-2 -33,0 -6,1 -10,2 -14,3 10,16 26,16 43,13 29,-6 19,-15 39,6 5,4 9,11 13,16 8,15 23,52 23,67 2,-2 6,-9 8,-13 1,-3 7,-13 7,-15 0,-2 -6,-11 -7,-14 -11,-18 -23,-35 -38,-50l-12 -10c0,-21 0,-44 -10,-60 -3,-4 -7,-10 -11,-13 -10,19 -2,41 8,58 2,2 4,3 5,6 -6,-3 -12,-8 -18,-12 -9,-8 -2,-9 -4,-24 -2,-10 0,-14 -4,-26 -2,-5 -9,-16 -12,-19 -13,23 -2,40 8,58 -6,-1 -18,-12 -22,-14 0,-3 1,-6 1,-9 3,-18 -4,-53 -15,-61 -1,10 -4,15 -2,35 0,10 5,23 9,29 -4,-1 -16,-10 -19,-13 0,-5 2,-11 3,-17 3,-19 2,-38 -7,-55 -4,2 -6,9 -7,14 -5,21 2,39 6,55 -5,-3 -11,-10 -16,-14 0,-2 0,-6 1,-10 3,-20 2,-38 -5,-56 -1,-5 -5,-15 -8,-18l-3 20c-1,3 0,7 -1,10 0,3 -1,7 -1,11 2,22 8,29 10,37 -4,-2 -19,-17 -21,-22 -2,-7 18,-48 -7,-90 -1,-3 -2,-4 -4,-7 -3,-4 -3,-4 -5,-5 0,30 -4,37 4,72 1,4 2,6 3,10 0,3 2,8 3,11 -11,-6 -22,-41 -25,-54 -5,-21 -8,-26 -20,-40 -5,-5 -4,-5 -10,-10 0,25 -1,44 12,63 17,22 40,47 58,69 3,4 9,10 12,13 30,26 55,41 86,65l14 13z"/>
   <path class="fil0" d="M150 214c-5,-2 -21,-16 -25,-18 -3,6 -7,9 -9,14 3,1 27,20 31,22l-21 20c-6,5 -13,16 -17,23 -9,14 -19,38 -20,59 13,-1 38,-25 47,-34 3,-2 3,-2 5,-5 7,-10 26,-35 27,-47l31 23c1,-1 8,-10 9,-12 -3,-3 -21,-17 -23,-18 1,-7 14,-19 16,-25 -8,0 -23,-9 -27,-15 -3,-3 -6,-6 -6,-9 -4,3 -7,8 -10,11 -2,3 -6,10 -8,11z"/>
   <path class="fil0" d="M240 104c2,4 5,6 10,14 4,5 6,11 9,16 2,-2 55,-79 59,-85 5,-9 8,-27 13,-37 -4,2 -24,14 -29,17 -5,3 -17,19 -21,25 -4,4 -7,8 -10,13l-11 12c-4,4 -6,8 -10,13l-10 12z"/>
   <path class="fil0" d="M88 98c5,8 19,17 29,20 13,4 26,5 44,5 -2,-3 -5,-5 -10,-10 -10,-9 -29,-18 -44,-18 -7,0 -14,2 -19,3z"/>
   <path class="fil0" d="M184 38c0,3 2,5 3,9 5,-2 34,-29 42,-25 3,1 8,4 11,6l20 15c4,3 6,5 11,7l5 -5c-3,-4 -16,-15 -21,-18 -11,-9 -12,-9 -23,-15 -5,-2 -7,-2 -14,2l-29 19c-3,1 -4,2 -5,5z"/>
   <path class="fil0" d="M126 134c1,6 6,9 10,12 15,11 36,11 57,11 -3,-8 -31,-25 -47,-25 -7,0 -16,0 -20,2z"/>
   <path class="fil0" d="M182 190c4,7 16,14 28,14 9,0 25,-4 38,-4 -6,-8 -21,-14 -34,-14 -12,0 -22,4 -32,4z"/>
   <path class="fil0" d="M149 168c8,14 35,16 52,13 6,-1 9,-3 15,-5 -4,-5 -17,-11 -26,-11 -8,0 -13,2 -20,3 -7,1 -14,0 -21,0z"/>
   <path class="fil0" d="M213 221c14,4 6,6 30,6 5,0 27,-4 31,-9 -3,0 -5,-1 -8,-2 -17,-7 -32,-10 -49,0 -2,2 -4,2 -4,5z"/>
   <path class="fil0" d="M330 238c0,14 21,17 21,0 0,-13 -21,-12 -21,0z"/>
   <path class="fil0" d="M291 260c0,17 21,13 21,2 0,-16 -21,-14 -21,-2z"/>
  </g>
 </g>
</svg>
