<?xml version="1.0" encoding="UTF-8"?>
<!DOCTYPE svg PUBLIC "-//W3C//DTD SVG 1.1//EN" "http://www.w3.org/Graphics/SVG/1.1/DTD/svg11.dtd">
<!-- Creator: CorelDRAW 2018 -->
<svg xmlns="http://www.w3.org/2000/svg" xml:space="preserve" width="512px" height="512px" version="1.1" style="shape-rendering:geometricPrecision; text-rendering:geometricPrecision; image-rendering:optimizeQuality; fill-rule:evenodd; clip-rule:evenodd"
viewBox="0 0 512 512"
 xmlns:xlink="http://www.w3.org/1999/xlink">
 <defs>
  <style type="text/css">
   <![CDATA[
    .fil0 {fill:#555555}
   ]]>
  </style>
 </defs>
 <g id="Слой_x0020_1">
  <metadata id="CorelCorpID_0Corel-Layer"/>
  <g id="_613742232">
   <path class="fil0" d="M144 270l0 0zm254 -4l0.55 -2.15 -0.55 2.15zm-41 -2l0 0zm-233 -12l0 0zm286 -14l-0.55 2.15 0.55 -2.15zm-15 -6l1.15 1.95 -1.15 -1.95zm-180 -79l1.95 -1.15 -1.95 1.15zm90 -27c-6.63,-1.55 -1.85,-3 -13,-3 -7.86,0 -13.26,4 -20,4 -3.77,0 -1.89,-0.66 -6,-1 4.6,-4 19.88,-11 28,-11l17 1c-2.21,3.3 -4.95,5.48 -6,10zm-181 126c-3.49,-2.34 -13.48,-13.67 -17.7,-15.39 -8.97,-3.65 -15.78,9.1 -16.3,15.39 7.31,-4.9 6.46,-13.94 34,10 -4.78,-0.11 -11.77,-2.15 -16.25,-2.75 -5.22,-0.71 -14.77,-1.44 -16.33,5.17l-0.42 7.54c0.29,3.75 0.66,6.32 3,8.04 0.35,-15.72 13.15,-13.36 31.62,-10.63 3.29,0.49 3.8,0.48 6.13,1.87 0.74,0.44 3.72,2.82 4.5,3.51 29.49,26.5 20.35,26.88 14.75,35.25 9.02,0 21.51,-9.63 12.8,-19.8l-19.8 -20.2c11.59,0.96 27.9,13.61 32,-4 2.46,1.65 2.06,1.89 3.85,4.15 7.62,9.63 26.38,18.52 41.15,18.85 -1.77,21.29 0.9,14.69 7.34,27.69 2.28,4.59 2.03,5.77 -0.34,9.31 -6.27,-4.59 -9.44,-23.57 -20.2,-8.2 -2.4,3.44 -3.8,6.63 -3.8,12.2 0.15,-0.18 0.38,-0.71 0.45,-0.55l3.7 -4.3c3.03,-2.83 2.51,-2.15 7.85,-2.15 2.38,3.56 4.76,6.59 7.39,10.61 8.04,12.31 9.36,1.43 15.83,21.17 2.86,8.73 6.73,9.14 6.78,12.22 -1.21,5.19 -3.78,5.42 -5,10 4.77,-1.28 15.81,-9.8 14,-16 -4.02,-6.01 -14.31,-11.73 -15,-20 13.02,1.08 8.56,13 24,13l0 11c4.71,-5.42 7.76,-17.58 2.18,-21.18 -1.4,-0.9 -7.99,-2.45 -10.49,-3.51 -1.95,-0.84 -3.11,-1.48 -4.71,-2.29 -0.65,-0.32 -1.85,-0.89 -2.64,-1.36 -2,-1.2 -1.01,-0.5 -2.34,-1.66 26.97,0 15.87,-2.16 26,-3 6.17,9.22 0.27,5.53 5,9 0.88,-3.78 2.02,-11.47 -0.01,-15.99 -0.6,-1.35 -0.32,-3.8 -5.25,-3.18 -4.7,0.6 -14.08,5.17 -22.74,5.17 2.07,-3.09 5,-4.55 7.78,-7.22 1.23,-1.17 2.52,-2.35 3.3,-3.7 3.4,-5.83 0.88,-7.77 9.37,-2.64 2.26,1.36 -0.36,1.23 1.55,0.56 1.83,-3.89 -6.22,-12.2 -9.81,-13.1 -6.13,-1.54 -7.98,7.85 -10.6,11.69 -2.33,3.44 -7.49,9.07 -11.59,9.41 -1.36,-5.85 -5.06,-10.97 -3.87,-21.86 0.23,-2.14 1.28,-8.87 2.15,-10.86 1.99,-4.56 3.87,-2.91 9.36,-4.64 30.75,-9.7 79.33,-39.52 97.63,-34.96 5.96,1.49 12.21,8.08 12.73,14.32 -6.53,-3.46 -9.02,-6.62 -19.99,-6.04 -5.77,0.31 -14.44,2.48 -19.74,5.3l-1.27 0.74c9.52,0.79 18.88,4.63 24.84,11.16 6.23,6.81 -2.02,20.57 -6.25,26.43 -9.96,13.76 -19.62,13.03 -12.74,-3.74 1.66,-4.03 3.03,-7.43 4.21,-11.82 3.1,-11.54 -2.16,-16.03 -14.06,-16.03 2.15,5.33 8.69,2.15 6.82,12.72l-4.82 15.28c0,-28.35 -5.6,-21.95 -17,-21 3.96,5.4 6,-2.48 8.48,7.52 0.98,3.97 2.43,9.49 2.52,13.48l-2.35 -3.65c-1.79,-3.2 -4.89,-8.33 -7.65,-10.35 -3,0.8 -10.41,5.82 -12,8 5.32,0 6.05,-1.04 8.33,-0.04 1.58,0.7 3.68,3.59 4.69,5.02 2.71,3.85 5.33,8.07 7.98,12.02 -6.34,-1.69 -9.39,-8 -19,-8 -0.86,3.22 -0.74,1.53 -1.82,4.18 -1.75,4.31 -4.14,10.92 -0.18,13.82 0.59,-2.53 0.79,-3 2.08,-4.92 6.37,-9.43 13.03,3.91 23.97,9.87 3.35,1.82 4.51,1.74 7.95,4.05 0,8.06 0.1,12.48 -2.61,18.39 -2.16,4.7 -3.1,7.75 -13.39,8.61 1.42,1.93 -0.76,2.63 11.03,2.04 24.53,-1.21 -2.57,-28.34 23.62,-41.39 3.74,-1.86 5.22,-2.37 8.25,-4.75 6.11,-4.81 1.96,-4.53 7.1,-5.9 0,28.31 -1.32,43.47 -12.41,61.58 -10.85,17.72 -9.09,9.83 -23.33,11.68 -11.59,1.5 -25.57,6.35 -30.26,6.74l0 2c3.82,0.89 5.24,2.32 8.05,3.95 3.22,1.87 5.85,2.18 7.95,5.05l-46 0c4.08,6.09 10.78,8.7 15,15 -11.8,-2.75 -17.35,-1.87 -27.34,-7.67 -2.98,-1.73 -19.03,-11.59 -20.87,-14.12 -4.67,-6.39 -2.65,-18.92 -7.94,-27.06 -3.68,-5.67 -13.61,-13.46 -20.85,-15.15 4.07,6.08 6.41,4.67 6.07,16.02 -0.2,6.96 -2.49,13.49 -8.07,14.98 0,-14.44 -7.35,-24.09 -19.69,-29.31 -10.62,-4.48 -24.31,-4.01 -24.31,-24.69 -9.37,6.28 1,26.42 5.58,33.42 4.12,6.29 5.89,7.97 11.57,12.43 5.51,4.31 6.85,7.65 6.85,17.15 -5.72,-4.19 -4.19,-11.79 -19.78,-9.79 -3.46,0.45 -5.38,0.28 -7.22,2.79 10.34,0.86 14.49,10.2 17.99,18.01 1.84,4.11 3.02,8.65 5.4,12.6 28.39,47.14 98.99,40.81 142.05,14.83 6.43,-3.89 16.8,-10.83 20.56,-16.44l-21.33 10.67c-21.11,9.79 -29.65,10.83 -50.39,13.61 -6.14,0.82 -21.82,0.47 -27.28,-4.28 82.74,0 162.13,-60.77 150.44,-137.45 -1.68,-10.99 -1.45,-8.17 3.7,-14.41 3.18,-3.85 5.88,-8.48 9.86,-11.14 -0.29,3.51 -2.47,9.41 -3.64,13.36 -5.42,18.25 -11.44,29.64 12.64,29.64 -3.75,-5.61 -8.48,-4 -5.92,-12.82 2.18,-7.56 -0.59,-12.88 5.56,-31.54 3.24,-9.79 2.11,-12.85 7.74,-21.26 6.59,-9.84 6.12,-9.42 18.62,-8.38 -3.46,-5.16 -5.52,-10 -14,-10l-9 13c0.08,-3.39 2.42,-12.75 3.66,-15.34 3.21,-6.64 7.67,-5.02 10.34,-8.66 -4.25,-0.99 -16.3,-5.98 -17.83,2.17l-3.17 20.83c-0.49,-5.9 -3.3,-11.05 -3.94,-17.18 -0.9,-8.77 3.61,-8.85 6.94,-13.82 -8.29,0 -11.07,1.7 -16,5 0,4.95 0.77,7.7 1.86,11.14 1.12,3.54 2.84,6.29 3.14,9.86 -2.31,-1.69 -5.58,-7.12 -7.09,-9.98 -3.36,-6.35 -0.08,-5.37 0.09,-13.02 -7.48,1.74 -14.07,9.54 -3.71,21.71 2.16,2.54 4.39,4.07 6.45,6.55 3.77,4.52 5.57,11.75 1.88,17.35 -2.47,3.74 -9.29,10.38 -13.62,11.39 -0.8,-9.65 -11.61,-31.94 -20.24,-39.76 -1.81,-1.65 -3.42,-2.42 -4.76,-4.24 3.94,-16.93 16.47,-12.75 12.99,-16.23 -1.22,-1.22 -2.33,-0.81 -4.87,-0.88 -18.93,-0.49 -42.55,18.68 -47.12,14.11 -3.59,-3.59 1.43,-13.94 10.35,-20.65 2.09,-1.57 0.48,-0.34 1.65,-1.35 -15.71,1.31 -28.62,8.81 -33.13,22.87 -6.4,20.01 -16.16,9.06 -14.22,-1.13 1.54,-8.13 2.84,-8.49 6.35,-13.74 -25.46,0 -17.2,42.55 -41,37 -2.5,-10.71 3.01,-17.8 9,-23 -11.26,0 -16.55,2.91 -22.26,8.74 -4.21,4.28 -13.9,13.41 -20.53,5.05 -8.17,-10.33 -9.19,-35.89 0.79,-50.79 -5.86,0.13 -9.26,2.39 -13.2,4.8 -4.79,2.94 -7.91,3.85 -12.8,6.2 1.28,-15.44 13.7,-38.73 29,-40 -1.46,1.99 -4.11,3.5 -6.39,5.61 -6.36,5.87 -12.62,14.83 -14.61,23.39 18.74,-9.92 37.02,-17 60,-17 -1.3,1.12 -0.33,0.46 -2.34,1.66l-9.34 4.66c-17.68,8.8 -14.52,14.59 -24.05,22.95 -2.53,2.22 -4.22,1.82 -5.27,4.73 18.82,0 34.09,1.52 45.17,-6.83 10.3,-7.78 15.01,-18.48 30.83,-22.17 -0.11,4.73 -2.71,9.15 -5.42,11.58 -1.05,0.95 -3.54,2.45 -4.97,3.03l-6.61 2.39c28.93,2.41 19.25,-0.98 39.99,-14.01 10.31,-6.47 31.79,7.01 45.01,7.01 1.39,-5.98 4,-12.15 4,-19 -0.89,0.59 -5.43,4 -5.89,4.22 -3.89,1.85 -4,-0.26 -8.11,-1.22 0.91,-1.91 1.78,-5.34 2,-8 -4.58,1.22 -4.81,3.79 -10,5 -2.14,-8.03 -18.94,-13.82 -27,-14 5.63,-4.89 17.05,-6.9 24.02,-7.04 4.98,-0.1 4.79,1.04 9.98,1.04 -1.6,3.33 -1,8.16 -1,13 4.1,-2.75 7.69,-7.63 10,-12 2.46,1.18 4.33,1.92 8,2l0 12c9.15,-6.71 20.55,-38.54 3.42,-55.42 -4.68,-4.62 -10.42,-6.73 -10.42,-15.58 6.06,-0.14 2.93,0.65 4,-2 -4.71,-3.16 -5.11,-2.37 -11,-1 -7.29,15.18 16.53,19.83 18.85,34.27 1.19,7.43 -1.83,9.73 -8.85,9.73 6.12,-12.75 -7.62,-21.33 -17.14,-24.87 -3.23,-1.2 -5.13,-1.52 -7.85,-3.14 -5.32,-3.16 -9.42,-11.47 -4.28,-14.16 4.41,-2.31 0.55,0.05 3.01,0.45 0.85,0.14 2.14,2.74 2.99,-1.36 1.06,-5.06 -9.7,-6.22 -13.11,0.7 -6.51,13.25 4.5,21.3 15.74,25.01 6.45,2.14 11.07,2.64 12.64,9.37 -1.16,8.97 -18.99,7.35 -24.66,5.66 -4.87,-1.45 -4.33,-1.87 -6.34,-5.66 1.51,-2.86 3.18,-4.46 4,-8 -2.72,-4.06 -7.05,-5.79 -12.29,-6.76 -19.6,-3.62 -18.73,7.17 -49.29,-4.66 -8.01,-3.1 -50.73,-19.94 -58.42,-20.58l-1.15 5.97c7.83,0.69 15.7,7.29 23.15,9.03 -2.02,2.76 -4.11,2.89 -7.71,4.29 -3.16,1.23 -6.58,2.41 -9.29,3.71 0.98,3.66 1.05,2.1 3,5 19.66,-4.58 21.51,-10.95 42.88,-2.88 5.7,2.16 9.12,2.89 9.12,9.88 -3.85,0.9 -4.81,1.5 -9.68,2.32 -8.74,1.46 -26.61,1.78 -36.37,1.73 -14.28,-0.09 -25.16,-11.99 -37.95,-13.05 -0.99,3.71 -1.01,1.29 -2,5 5.11,1.19 22.4,8.46 25,12 -6.36,1.7 -10.68,9.31 -17,11l0 2c9.65,2.25 4.86,3.37 21.78,-7.22 7.42,-4.64 20.85,-2.78 30.22,-2.78 -0.2,0.14 -0.54,0.07 -0.63,0.37l-11.24 4.76c-9.39,3.8 -18.07,9.75 -26.21,15.8 -10.2,7.58 -32.53,-4.04 -45.7,14.29 -3.3,4.6 -3.64,7.67 -2.22,13.78 2.84,-1.03 2.63,-2.64 5.38,-4.62 4.66,-3.38 20.3,-6.27 24.62,-0.38 -4.69,6.41 -42,6 -42,44 4.8,-3.21 7.68,-7.95 12.26,-11.74 6.62,-5.48 10.01,-3.99 18.74,-3.26l0 3c-7.99,0.66 -15.4,9.19 -18.68,15.32 -6.93,12.97 -4.32,14.81 -4.32,27.68 2.81,-2.06 2.18,-5.06 6.19,-8.81 3.77,-3.52 5.43,-3.09 9.81,-5.19 0,11.54 -3,18.89 -3,30l-21 0c-2.64,-11.35 -5.02,-4.58 -4.97,-33.04 0.03,-11.56 -3.2,-16 -14.02,-14.98 -3.28,0.3 -4.86,1.15 -7.01,3.02 8.46,0.7 9.99,3.16 11.83,10.17 1.47,5.62 2.66,13.69 3.17,19.83 -6.26,-7.2 -11.31,-28.04 -24,-22.04 -3.1,1.47 -7.15,5.27 -9,8.04 13.76,0 9.92,-2.92 18.27,5.73 2.93,3.03 8.71,11.89 9.73,16.27z"/>
   <path class="fil0" d="M50 129c0.59,-0.68 1.05,-1.15 1.8,-2.2 1.12,-1.59 0.87,-1.36 1.89,-3.11l33.11 -53.89c4.33,-7.07 3.17,-5.71 11.85,-8.15 30.36,-8.55 62.29,-16.31 93.43,-22.57 14.88,-3 54.51,-9.79 67.92,-9.79 8.73,0 24.61,2.48 33.71,4 38.39,6.42 58.35,10.48 96.89,20.11 10.73,2.68 19.51,5.1 29.97,8.03 11.14,3.12 8.76,1.47 19.49,19.51l29.94 48.06c-40.66,60.72 -24.57,108.76 -30.91,184.09 -3.54,41.92 -11.62,62.11 -32.28,92.72 -5.77,8.55 -19.07,21.25 -26.5,27.5 -20.01,16.82 -43.57,30.15 -67.59,40.41 -8.32,3.56 -45.07,19.06 -52.72,19.06 -7.35,0 -44.39,-15.41 -52.03,-18.75 -18.46,-8.09 -36.52,-17.11 -52.39,-28.61 -2.14,-1.54 -3.28,-2.18 -5.31,-3.7 -3.83,-2.86 -6.5,-4.85 -10.05,-7.94l-18.49 -17.51c-24.77,-25.73 -38.33,-66.04 -40.77,-102.24 -2.03,-30.18 -1.96,-40.01 -1.96,-70.03 0,-35.14 -3.71,-75.4 -21.79,-104.21 -2.39,-3.81 -4.81,-7.21 -7.21,-10.79zm-10 1c12.83,19.15 17.84,25.34 24,50 5.26,21 6,41.67 6,68 0,12.03 1.36,61.66 2.69,71.31 5,36.18 12.95,66.67 35.16,93.84 9.85,12.04 16.94,18.33 27.89,28.11l21.3 15.7c34.52,20.47 35.57,20.42 74.96,36.04 3.61,1.43 24.88,9 28,9 3.11,0 24.39,-7.57 28,-9 33.68,-13.36 55.81,-22.02 85.58,-43.42l20.17 -16.83c3.4,-3.42 6.07,-6.1 9.5,-9.5 3.26,-3.21 5.46,-6.04 8.44,-9.56 7.6,-8.93 15.98,-24.28 20.98,-35.02 12.73,-27.3 16.33,-63.73 16.33,-94.67 0,-13.31 1,-22.88 1,-36 0,-26.55 0.7,-46.83 6,-68 2.44,-9.76 5.45,-18.93 9.65,-27.35 4.56,-9.13 9.14,-14.87 14.35,-22.65 -6.93,-13.1 -22.62,-36.75 -31.06,-50.94l-11.32 -18.68c-2.02,-3.45 -1.81,-3.61 -6.12,-4.88 -11.36,-3.35 -21.54,-5.84 -32.92,-9.08 -28.55,-8.11 -108.06,-25.42 -139.58,-25.42 -32.38,0 -137.9,23.53 -170.44,34.56 -5.82,1.97 -5.22,3.29 -9.5,10.5 -10.65,17.92 -30.71,48.15 -39.06,63.94z"/>
   <polygon class="fil0" points="241,377 240,377 240.83,378.17 "/>
  </g>
 </g>
</svg>
