<?xml version="1.0" encoding="UTF-8"?>
<!DOCTYPE svg PUBLIC "-//W3C//DTD SVG 1.1//EN" "http://www.w3.org/Graphics/SVG/1.1/DTD/svg11.dtd">
<!-- Creator: CorelDRAW 2019 (64-Bit) -->
<svg xmlns="http://www.w3.org/2000/svg" xml:space="preserve" width="80.786mm" height="100mm" version="1.1" style="shape-rendering:geometricPrecision; text-rendering:geometricPrecision; image-rendering:optimizeQuality; fill-rule:evenodd; clip-rule:evenodd"
viewBox="0 0 314.74 389.6"
 xmlns:xlink="http://www.w3.org/1999/xlink"
 xmlns:xodm="http://www.corel.com/coreldraw/odm/2003">
 <defs>
  <style type="text/css">
   <![CDATA[
    .fil0 {fill:#555555}
   ]]>
  </style>
 </defs>
 <g id="Слой_x0020_1">
  <metadata id="CorelCorpID_0Corel-Layer"/>
  <g id="_2298106476992">
   <path class="fil0" d="M109.69 259.69l0 0zm-22.78 -55.68c-0.62,7.48 -9.7,10.73 -11.07,9.36 -1.22,-1.22 1.36,-5.43 2.8,-6.67 2.13,-1.84 5.3,-2 8.28,-2.69zm22.78 55.68c0,4.62 -1.03,7.29 1.69,9.28 3.88,-16.66 13.99,-10.09 20.25,-5.91 0,4 -1.33,8.09 -3.18,10.32 -2.54,3.06 -6.03,2.34 -11.16,2.34 3.17,4.33 10.43,5.6 14.98,1.48 5.97,-5.4 6.7,-12.93 15.12,-17.79 14.66,-8.46 20.14,-11.89 36.54,-19.14 14.05,-6.21 27.42,-18.48 34.6,-32.05 -3.37,0.9 -14.74,12.72 -23.05,3.64 -1.16,-1.27 -2.79,-4.01 -3.03,-5.62 -1.54,-10.21 18.9,4.1 54.94,-19.78 2.17,-1.44 7.9,-5.99 9.1,-7.77l-10.97 0c0.15,-0.13 0.41,-0.51 0.48,-0.36l11.37 -7.19c3.19,-2.52 6.59,-7.97 6.71,-13.54 -6.69,4.48 -16.32,10.97 -24.47,10.97 2.12,-2.9 24.15,-12.9 24.47,-27l-26.31 15.03c-4.96,3.08 -4.14,2.69 -11.66,2.69 1.98,-2.7 9.84,-6.47 13.34,-8.59l20.98 -12.77c7.24,-4.25 13.77,-9.96 13.77,-19.98 -4.72,1.1 -35.78,20.52 -41.18,23.78 -7.12,4.3 -5.84,4.9 -17.03,4.9 1.56,-2.13 15.31,-9.43 18.83,-11.55 3.39,-2.04 6.15,-3.66 9.6,-5.59 16.68,-9.32 39.91,-19.77 39.91,-36.86 -6.45,3.41 -12.49,7.26 -18.61,10.92l-46.17 28.07c-4.74,3.1 -5.7,2.34 -12.84,2.34 4.42,-6.03 76.3,-44.11 81.7,-52.44 2.72,-4.2 4.35,-8.29 4.35,-15.05l-70.51 43.38c-16.56,10.18 -12.39,10.61 -27.35,10.61 1.57,-2.14 11.09,-7.58 14.18,-9.44l74.77 -45.88c9.36,-5.62 23.43,-11.31 19.88,-26.52 -7.96,4.21 -16.03,9.71 -23.66,14.3l-167 100.43c2.44,9.14 9.99,1.95 17.95,3.96 6.17,1.56 11.15,6.82 9.61,15.11 -1.85,9.98 -5.16,8.2 -14.73,10.62l-21.26 4.89c2.49,-3.72 7.63,-8.09 10.12,-11.81 -3.56,0.83 -24.08,14.37 -27.33,16.53 -6.03,4.02 -14.75,8.48 -17.71,15.26 -1.92,4.4 -0.66,4.44 0.33,8.7 -8.04,5.38 -10.13,21.6 -5.06,25.31 4.64,-19.94 55.46,-29.44 66.35,-27.54 19.79,3.46 9.35,37.04 3.68,38.51 -3.25,-0.27 -2.96,-0.85 -5.9,-1.7 -1.7,-0.49 -4.15,-1.01 -6.24,-1.36 -21.93,-3.63 -25.79,16.08 -18.24,21.62 0,-5.81 0.47,-10.58 5.06,-11.81z"/>
   <path class="fil0" d="M0.02 105.31c0,46.2 -1.15,82.74 16.02,125.71 9.63,24.1 19.43,44.57 35.08,65.31 7.18,9.52 14.23,19.01 22.51,27.27l18.55 18.57c15.54,15.71 48.45,37.53 66.46,46.68 4.15,2.11 7.82,-0.47 15.98,-5.18 10.56,-6.09 35.05,-22.71 43.71,-31.38l12.64 -11.82c4.42,-4.42 8.48,-7.89 12.38,-12.93 13.26,-17.15 17.35,-18.43 32.07,-43.02l9.08 -16.23c3.27,-5.32 13.22,-29.73 15.13,-35.49 16.69,-50.42 15.07,-75.74 15.07,-127.5 0,-2.22 -18.15,-14.4 -21.09,-15.19 -0.76,1.59 -2.1,4.92 -2.53,6.75 3.64,1.93 5.28,3.5 8.59,5.75 10.47,7.11 8.28,1.14 8.28,28 0,67.31 -18.06,129.41 -58.86,179.05 -8.03,9.77 -21.44,25.19 -30.69,32.58 -11.08,8.85 -12.04,11.51 -28.05,22.57 -8.76,6.05 -13.89,9.65 -23.27,14.7 -3.33,1.8 -4.85,3.34 -8.62,1.07 -5.49,-3.31 -10.12,-5.48 -15.51,-9.02 -2.86,-1.88 -5,-3.04 -7.77,-4.89l-21.91 -16.06c-2.48,-2.03 -4.62,-3.92 -6.94,-5.71 -2.62,-2.02 -4.12,-3.9 -6.75,-5.91 -13.08,-9.99 -37,-38.13 -47.08,-53.32 -27.58,-41.55 -45.72,-87.04 -45.72,-155.91 0,-26.88 -2.11,-19.93 8.95,-27.33l146.28 -94.16c12.35,8.45 84.43,58.4 86.05,58.21 2.26,-1.19 4.44,-2.22 5.91,-4.22 -30.03,-20.11 -59.98,-40.87 -89.78,-61.35 -3.76,-2.07 -3.92,-0.79 -12.31,4.83 -14.33,9.61 -151.86,96.13 -151.86,99.55z"/>
   <path class="fil0" d="M130.78 338.15c6.4,-3.39 29.29,-19.07 31.22,-19.04 2.4,0.03 27,17.91 31.21,19.04l-5.91 -91.96c-4.71,1.1 -28.89,14.46 -36.67,19.01 -6.35,3.72 -2.03,2.07 -8.39,10.17 -7.42,9.46 -8.81,3.41 -8.91,18.93 -0.09,14.04 -2.56,29.05 -2.56,43.84z"/>
   <polygon class="fil0" points="126.56,52.16 148.5,52.16 143.44,128.93 178.87,106.99 174.65,52.16 197.43,52.16 162,30.19 "/>
  </g>
 </g>
</svg>
