<?xml version="1.0" encoding="UTF-8"?>
<!DOCTYPE svg PUBLIC "-//W3C//DTD SVG 1.1//EN" "http://www.w3.org/Graphics/SVG/1.1/DTD/svg11.dtd">
<!-- Creator: CorelDRAW 2019 (64-Bit) -->
<svg xmlns="http://www.w3.org/2000/svg" xml:space="preserve" width="155.102mm" height="200mm" version="1.1" style="shape-rendering:geometricPrecision; text-rendering:geometricPrecision; image-rendering:optimizeQuality; fill-rule:evenodd; clip-rule:evenodd"
viewBox="0 0 16381.42 21123.44"
 xmlns:xlink="http://www.w3.org/1999/xlink"
 xmlns:xodm="http://www.corel.com/coreldraw/odm/2003">
 <defs>
  <style type="text/css">
   <![CDATA[
    .fil0 {fill:#555555}
   ]]>
  </style>
 </defs>
 <g id="Слой_x0020_1">
  <metadata id="CorelCorpID_0Corel-Layer"/>
  <path class="fil0" d="M10317.5 16065.39c-1597.33,2139.06 -2236.72,2353.24 -4234.35,3142.08 348.23,262.59 588.68,393.52 1207.26,736.1 263.97,-76.37 1113.96,-486.17 1316.3,-607.49 2397.45,-1437.6 4076.15,-3475.76 4565.81,-6307.25 285.6,-1651.45 -190.11,-3266.06 -1008.27,-4692.33 -1192.57,-2079.01 -3160.14,-4302.95 -4692.01,-6228.94l-2826.04 0c1784.71,2458.34 4162.95,4711.29 5709.59,7271.04 1282.35,2122.38 1362.18,4596.42 -38.28,6686.79zm-8209.96 -12520.87c423.97,499.73 4769.25,5796.35 5283.02,6404.32 1447.75,1935.3 2022.76,3731.84 383.89,5681.04 -905.46,1076.89 -2134.1,1867.66 -3511.45,2188.51 214.47,239.77 558.05,515.12 892.3,747.82 2549.74,-594.02 5251.5,-2460.12 5286.01,-5394.95 28.21,-2395.18 -670.83,-3797.55 -2265.38,-5684.26 -790.51,-931.85 -4273.36,-5016.57 -4583.5,-5379.45l-1484.88 0 0 1436.96zm2731.05 11927.63c-434.29,286.88 -1531.6,753.81 -2060.45,765.58 221.98,334.52 578.87,717.13 811.22,947.82 548.13,-126.93 1539.9,-247.78 2796.38,-1267.91 3076.17,-2497.54 683.44,-5235.83 -1032.08,-7332.71l-3246.12 -3842.93c0,540.94 -1.4,2858.01 8.61,3235.36 165.1,152.98 1573.66,1861 1778.71,2114.27 1186.3,1465.22 3264.61,3847.5 943.73,5380.53zm-4455.41 -5269.69l0 -9819.27 15615.06 0 0 9819.27c0,1625.33 -300.49,2690.4 -758.97,3839.34 -463.79,1162.26 -1379.81,2495.99 -2294.55,3405.43 -1651.92,1511.45 -2321.72,2102.36 -4754.01,3223.35 -2432.29,-1120.99 -3102.09,-1711.91 -4754.01,-3223.35 -914.74,-909.44 -1830.77,-2243.16 -2294.55,-3405.43 -458.47,-1148.95 -758.97,-2214.01 -758.97,-3839.34zm-383.18 -10202.47l0 10920.97c0,1804.08 797.27,3661.94 1772.26,5125.18 686.69,1030.62 1213.39,1634.82 2167.97,2430.33 1063.5,966.93 3110.18,2183.34 4250.48,2646.97 1140.3,-463.63 3186.98,-1680.04 4250.48,-2646.97 954.58,-795.51 1481.28,-1399.7 2167.97,-2430.33 974.98,-1463.24 1772.26,-3321.1 1772.26,-5125.18l0 -10920.97 -16381.42 0z"/>
 </g>
</svg>
