<?xml version="1.0" encoding="UTF-8"?>
<!DOCTYPE svg PUBLIC "-//W3C//DTD SVG 1.1//EN" "http://www.w3.org/Graphics/SVG/1.1/DTD/svg11.dtd">
<!-- Creator: CorelDRAW 2019 (64-Bit) -->
<svg xmlns="http://www.w3.org/2000/svg" xml:space="preserve" width="100mm" height="102.697mm" version="1.1" style="shape-rendering:geometricPrecision; text-rendering:geometricPrecision; image-rendering:optimizeQuality; fill-rule:evenodd; clip-rule:evenodd"
viewBox="0 0 347.24 356.61"
 xmlns:xlink="http://www.w3.org/1999/xlink"
 xmlns:xodm="http://www.corel.com/coreldraw/odm/2003">
 <defs>
  <style type="text/css">
   <![CDATA[
    .fil0 {fill:#555555}
   ]]>
  </style>
 </defs>
 <g id="Слой_x0020_1">
  <metadata id="CorelCorpID_0Corel-Layer"/>
  <g id="_2298105593264">
   <path class="fil0" d="M196.16 21.88l8.9 1.01 -2.22 1.61c-2.15,2.18 -1.81,1.04 -1.81,6.29 8.09,0.18 -1.72,4.99 -3.59,1.08 -1.36,-2.86 -0.21,-1.65 1.97,-1.89 0,-4.74 -1.38,-5.32 -3.24,-8.1zm8.92 -6.48c1.15,-4.3 3.47,-4.13 7.29,-3.24 -0.95,3.56 -2.89,3.24 -7.29,3.24zm-12.16 -4.05c1.57,0.75 6.49,1.79 4.15,4.14 -2.43,2.43 -3.52,-2.73 -4.15,-4.14zm26.75 -4.05c2.15,-1.14 2.36,-1.55 5.67,-1.62 -0.11,4.76 -0.92,4.83 -4.05,6.48 -0.29,-1.23 -1.12,-3.75 -1.62,-4.86zm-27.56 0.81l-1.62 0c-1.15,-4.94 -0.31,-6.21 4.05,-4.05 -1.53,2.29 -1.75,1.19 -2.43,4.05zm-57.54 39.71c9.7,2.26 7.95,13.14 6.48,19.45 6.45,0 24.47,-5.52 27.87,2.95 2.06,5.14 -0.37,6.86 -1.94,9.21l17.02 0c-6.49,-9.69 3.8,-16.3 6.48,-17.02 -4.26,6.36 -9.19,17.05 4.82,17.07 10.82,0.01 21.64,-0.05 32.46,-0.05 0.54,6.52 9.37,15.13 11.91,14.09 1.56,-0.64 -0.34,-4.02 -0.57,-6.79 2.01,2.66 3.27,3.92 4.05,7.29 2.13,-0.5 2.38,-0.74 4.05,-1.62 -0.29,-3.46 -1.33,-3.84 -1.62,-7.29 1.37,1.58 2.7,3.25 4.05,4.86 0,-7.36 -0.66,-7.96 -4.23,-11.98 -2.92,-3.29 -4.6,-6.06 -9.21,-7.81 -7.9,-3 -21.02,-2.93 -27.09,-6.14 0.74,-3.19 3.48,-7.31 5.67,-8.92 -0.27,11.93 -7.18,5.27 17.2,11.17 9.78,2.37 14.5,6.03 19.27,13.15l14.59 0c-0.11,-1.35 -0.55,-2.07 0,-3.24 4.55,3.04 -0.11,3.24 6.48,3.24 -0.35,-4.15 -0.62,-1.1 -1.62,-4.86 2.78,0.74 3.78,1.6 4.05,4.86l3.24 0c-0.42,-5.01 -3.84,-9.02 -7.03,-11.61 -7.05,-5.72 -19.25,8.46 -42.54,-10.14 -6.41,-5.12 -4.24,-4.26 -4.7,-13.94 -0.32,-6.68 -4.24,-6.89 -2.95,-15 1.71,-10.79 -2.11,-9.61 3.91,-14.77 5.72,-4.91 5.17,-7.97 2.25,-12.34 -2.03,0 -3.45,-0.16 -5.37,0.31 -1.43,0.35 -3.73,1.63 -3.97,1.69 -4.94,1.2 -4.84,-5.57 -18.08,-2.59 -4.54,1.02 -3.35,-1.03 -9.86,-1.03 -5.52,6.37 -0.47,8.48 0.7,13.89 1.01,4.66 1.13,8.07 -0.26,12.49 -2.05,6.51 -8.63,12.15 -14.91,14.27 -22.31,7.5 -28.19,-7.3 -46.28,-7.45 -17.57,-0.15 -29.32,4.51 -41.58,16.84 -4.11,4.13 -11.35,10.22 -11.14,18 0.64,23.14 42.04,17.72 48.18,40.22 3.34,12.23 -9.7,13.96 -3.22,21.03 7.73,8.42 23.11,-12.32 9.03,-33.34 -9.96,-14.87 -26.68,-13.81 -35.99,-22.36 -8.05,-7.39 -3.9,-13.8 3.07,-18.47 -0.76,3.25 -2.59,4.53 -3.57,7.88 -2.24,7.61 11.88,13.38 17.61,15.36 7.86,2.71 34.36,1.08 45.12,1.08 0.8,-3.43 0.78,-2.67 -0.81,-5.67 4.15,0.97 3.24,0.89 3.24,5.67 6.34,0 5.67,-2.02 5.67,-8.1l-2.61 -2.26c-3.28,-1.3 -21.75,1.45 -26.57,1.45 6.2,-12.92 2.62,-16.21 -0.81,-22.69z"/>
   <path class="fil0" d="M0.03 173.44c0,24.09 -0.76,30.1 5.5,54.47 5.95,23.15 16.23,42.44 30.27,61.31l9.81 11.26c1.99,2.25 2.59,3.41 4.86,5.68 2.17,2.17 2.98,2.58 5.25,4.48 18.65,15.61 13.5,12.8 35.86,25.73 18.88,10.92 50.59,20.23 72.17,20.23 28.4,0 42.79,-0.34 69.82,-10.41 5.7,-2.12 9.44,-3.88 14.94,-6.14 8.11,-3.32 23.87,-13.9 31.03,-19.22 20.08,-14.94 34.67,-34.2 47.15,-55.78 3.79,-6.55 6.98,-14 9.59,-21.2 1.88,-5.19 3.47,-9.66 4.96,-15.3 14.34,-54.22 2.49,-107.98 -30.45,-151.92 -1.7,-2.27 -2.4,-2.72 -4.06,-4.85 -5.85,-7.49 -15.13,-16.42 -22.34,-22.23 -13.99,-11.3 -26.99,-20 -44.34,-26.99 -15.51,-6.25 -14.72,-7.22 -14.72,2.56 10.35,0.86 34.8,15.6 43.94,21.71 32.51,21.75 56.97,58.83 66.3,97.41 8.88,36.73 4,77.04 -11.62,110.78 -15.19,32.81 -45.37,62.7 -78.07,78.35 -45.17,21.62 -101.05,21.72 -145.91,-0.54 -8.51,-4.22 -17.86,-9.9 -25.16,-15.36 -38.91,-29.11 -68.58,-76.35 -67.74,-134.19 0.66,-44.86 16.24,-85.43 45.84,-115 3.39,-3.39 6.62,-7.03 10.14,-10.12 25.51,-22.48 65.43,-41.14 100.69,-41.14l22.69 0c-0.11,-5.1 -1.36,-2.68 -2.43,-7.29 -31.07,0 -46.55,0.95 -74.8,11.91 -9.39,3.64 -20.17,9.07 -28.46,14.5 -4.79,3.14 -8.37,5.67 -12.87,9.02 -10.7,7.95 -24.47,21.72 -32.42,32.42 -10.09,13.58 -13.31,19.04 -20.3,34 -1.35,2.88 -2.24,4.76 -3.44,7.91 -2.24,5.92 -3.64,10.01 -5.49,16.39 -2.93,10.07 -6.2,25.24 -6.2,37.57z"/>
   <path class="fil0" d="M139.43 110.22l128.86 0c1.62,-6.95 12.14,-18.9 13.78,-25.93l-28.37 0c0,3.85 -0.8,7.33 -2.6,9.55 -7.63,9.4 -22.3,1.83 -24.95,-9.55l-102.12 0c0.73,1 15.4,12.68 15.4,25.93z"/>
   <path class="fil0" d="M87.56 147.51c8.37,0 18.64,5.33 18.64,12.97l0 4.86c0,8.48 -10.11,11.35 -18.64,11.35l-0.02 18.7 15.42 50.19 21.07 0 -17.71 -54.34c15.12,-2.56 17.71,-18 17.71,-33.19 0,-15.19 -15.05,-31.61 -36.47,-31.61l0 21.07z"/>
   <polygon class="fil0" points="155.64,157.23 175.09,211.53 160.5,211.53 156.45,229.36 182.38,229.36 200.21,280.42 205.89,244.76 164.55,127.24 "/>
   <path class="fil0" d="M205.89 302.3c4.03,15.81 4.76,19.43 8.1,31.61 17.7,-1.59 62.73,-27.3 73.75,-43.77l-22.49 -22.89c-13.02,15.26 -35.84,32.3 -59.36,35.05z"/>
   <polygon class="fil0" points="241.55,245.57 261.81,245.57 261.81,126.43 241.55,126.43 "/>
   <polygon class="fil0" points="62.44,245.57 82.7,245.57 82.7,126.43 62.44,126.43 "/>
   <path class="fil0" d="M267.48 224.5l0 21.07c7.71,-1.8 20.79,-13.64 25.48,-19.9 17.11,-22.83 17.38,-54.15 0.11,-77.02 -4.27,-5.66 -18.18,-20.45 -24.79,-22.22 0,2.81 0.27,13.01 0.22,22.25 7.65,10.43 30.1,27.97 15.2,57.2 -3.21,6.29 -10.14,15.39 -16.23,18.62z"/>
   <polygon class="fil0" points="211.56,245.57 231.82,245.57 231.82,150.75 211.56,150.75 "/>
   <polygon class="fil0" points="127.27,245.57 146.72,245.57 161.82,190.21 152.4,163.71 "/>
   <path class="fil0" d="M85.13 110.22l34.85 0c-1.06,-12.75 -21.11,-16.87 -32.97,-22.95 -2.18,-1.12 -3.91,-2.54 -6.02,-2.9 -2.1,-0.36 -7.24,-0.08 -9.64,-0.08 1,4.28 12.75,21.53 13.78,25.93z"/>
   <polygon class="fil0" points="169.42,316.08 151.59,316.08 165.36,325.81 160.5,342.83 175.09,333.1 189.68,342.83 184.82,325.81 198.59,316.08 180.76,316.08 175.09,299.06 "/>
   <polygon class="fil0" points="211.56,145.07 231.82,145.07 231.82,126.43 211.56,126.43 "/>
   <path class="fil0" d="M144.29 302.3c-4.04,15.81 -4.76,19.43 -8.1,31.61 -17.7,-1.59 -62.73,-27.3 -73.75,-43.77l22.49 -22.89c13.02,15.26 35.84,32.3 59.36,35.05z"/>
  </g>
 </g>
</svg>
