<?xml version="1.0" encoding="UTF-8"?>
<!DOCTYPE svg PUBLIC "-//W3C//DTD SVG 1.1//EN" "http://www.w3.org/Graphics/SVG/1.1/DTD/svg11.dtd">
<!-- Creator: CorelDRAW 2019 (64-Bit) -->
<svg xmlns="http://www.w3.org/2000/svg" xml:space="preserve" width="87.5001mm" height="100mm" version="1.1" style="shape-rendering:geometricPrecision; text-rendering:geometricPrecision; image-rendering:optimizeQuality; fill-rule:evenodd; clip-rule:evenodd"
viewBox="0 0 196.25 224.29"
 xmlns:xlink="http://www.w3.org/1999/xlink"
 xmlns:xodm="http://www.corel.com/coreldraw/odm/2003">
 <defs>
  <style type="text/css">
   <![CDATA[
    .fil0 {fill:#555555}
   ]]>
  </style>
 </defs>
 <g id="Слой_x0020_1">
  <metadata id="CorelCorpID_0Corel-Layer"/>
  <g id="_1732682632432">
   <path class="fil0" d="M28.04 99.29c17.77,7.67 34.78,15.43 52.16,23.77 21.4,10.27 14.88,10.23 43.61,-3.93l44.41 -19.84 0 -29.2 -70.09 31.54 -70.09 -31.54 0 29.2z"/>
   <path class="fil0" d="M4.67 144.85l0 -140.18 186.91 0 0 141.35c0,5.59 -1.77,12.07 -3.95,15.91 -6.76,11.91 -21.39,22.08 -32.92,28.99 -7.02,4.2 -51.74,27.53 -55.41,27.53 -15.78,0 -66.92,-30.25 -81.48,-44.68 -7.52,-7.46 -13.14,-14.3 -13.14,-28.91zm-4.67 7.01c0,18.48 25.4,37.87 39.72,45.56 10.61,5.7 50.73,26.87 58.41,26.87 3.43,0 98.13,-37.84 98.13,-72.43l0 -151.86 -196.25 0 0 151.86z"/>
  </g>
 </g>
</svg>
