<?xml version="1.0" encoding="UTF-8"?>
<!DOCTYPE svg PUBLIC "-//W3C//DTD SVG 1.1//EN" "http://www.w3.org/Graphics/SVG/1.1/DTD/svg11.dtd">
<!-- Creator: CorelDRAW 2018 -->
<svg xmlns="http://www.w3.org/2000/svg" xml:space="preserve" width="43.3492mm" height="43.3492mm" version="1.1" style="shape-rendering:geometricPrecision; text-rendering:geometricPrecision; image-rendering:optimizeQuality; fill-rule:evenodd; clip-rule:evenodd"
viewBox="0 0 4334.92 4334.92"
 xmlns:xlink="http://www.w3.org/1999/xlink">
 <defs>
  <style type="text/css">
   <![CDATA[
    .fil0 {fill:#555555}
   ]]>
  </style>
   <clipPath id="id0">
    <rect x="16.93" y="8.46" width="4334.92" height="4334.92"/>
   </clipPath>
 </defs>
 <g id="Слой_x0020_1">
  <g id="_841591216">
   <path class="fil0" d="M1075.26 2777.05l0 0zm-702.73 -1049.86c28.49,-13.67 119.64,-32.01 154.11,-40.63 55.2,-13.8 99.41,-24.78 155.73,-39l857.28 -209.52c31.22,-10.89 32.06,-21.68 49.52,-52.07l603.69 -979.58c8.02,30.06 564.86,941.86 583.66,974.2 36.98,63.58 25.59,50.28 120.77,73.96l1098.96 272.64 -349.18 404.35c-20.26,21.64 -24.36,24.07 -43.86,49.27 -16.99,21.97 -27.94,28.46 -44.72,48.41l-85.14 101.13c-60.95,68.59 -121.58,131.22 -178.57,202.43 -13.94,17.41 -80.41,85.08 -86.14,97.65 -13.8,30.29 64.79,766.05 67.93,866.3 3.74,119.18 25.42,230.21 25.42,355.58l-972.48 -449.91c-203.49,-82.39 -62.16,-100.52 -424.41,60.56 -22.58,10.04 -45.33,22.85 -67.72,33.88l-770.59 355.47 95.97 -1212.23c-3,-22.03 -9.59,-14.68 -36.65,-49.3l-620.62 -708.69c-34.78,-41.36 -100.55,-106.5 -132.96,-154.9zm702.73 1049.86l0 84.67c-29.72,14.26 -256.05,90.48 -287.87,93.13 20.02,27.32 87.94,52.43 124.18,70.56 36.96,18.48 102.42,56.55 138.29,64.91 0,152.39 -30.22,294.6 -33.87,440.26 -3.64,145.68 -33.86,291.16 -33.86,440.27 85.4,-19.9 690.34,-334.96 778.93,-355.6l226.6 222.13 2 -332.2c30.49,-16.13 63.37,-26.58 93.13,-42.33l-0.43 423.76c-0.4,42.31 -5.92,44.86 14.6,70.07 15.67,19.23 68.99,69.55 87.43,81.9 18.44,-12.35 71.76,-62.67 87.43,-81.9 26.94,-33.09 14.17,-109.28 14.17,-155.16 0,-112.89 0,-225.78 0,-338.67 29.76,15.75 62.64,26.2 93.13,42.33l0 330.2 226.6 -222.13c66.74,19.09 130.7,61.6 195.55,87.85 34,13.77 61.36,30.27 97.1,46.83 67.47,31.27 443.83,212.56 488.28,222.92 0,-220.35 -67.73,-659 -67.73,-880.53 88.11,-20.53 176.32,-98.47 262.47,-118.54l0 -16.93c-81.14,-18.9 -214.52,-57.94 -287.87,-93.13 0,-39.36 4.82,-65.45 -8.47,-93.14 82.03,19.12 367.5,137.72 422.33,132.63 28.27,-2.63 86.82,-46.83 128,-56.43 -4.86,-20.87 -48.42,-113.06 -59.85,-126.4 -22.17,-25.88 -377.38,-135.93 -414.28,-144.53 8.34,-31.23 35.56,-51.85 59.27,-67.73 41.76,-10.82 226.33,79.54 287.87,84.67 -46.38,-87.64 -89.1,-174.84 -135.47,-262.47l345.87 -399.19c12.98,-16.26 22.55,-23.52 37.4,-38.81l175.53 -205.47c-26.45,-12.69 -97.64,-26.54 -133.76,-35.57 -45.11,-11.28 -91.45,-22.84 -142.25,-35.55 -72.52,-18.15 -544.72,-122.23 -571.19,-140.01 -25.94,-17.41 -23.77,-105.43 -29.67,-148.12 -7.33,-52.98 -16.7,-110.44 -20.6,-157.21 -25.43,17.03 -70.21,86.47 -95.09,116.58 -26.58,32.16 -80.75,89.92 -91.17,128.95 -36.53,-3.04 -53.84,-16.06 -93.14,-16.93 8.06,-34.56 55.41,-88.02 77.37,-117.37l168.76 -220.81c32.35,-46.16 0.55,-118.68 -0.59,-169.82 -37.89,0.84 -132.08,8.49 -159.52,35.22 -29.89,29.11 -58.14,77.2 -83.6,111.13 -30.02,40 -55.04,70.32 -84.69,110.05 -21.11,28.29 -63.49,91.88 -87.06,107.67 -64.77,-96.74 -45.64,-82.45 45.91,-199.63 31.51,-40.34 66.4,-78.34 89.56,-122.11 -98.73,0 -203.54,33.91 -304.8,42.34 -113.39,-169.33 -212.81,-353.58 -318.07,-528.6 -30.42,-50.59 -92.72,-128.78 -105.26,-182.6l-16.94 0c-9.44,40.55 -382.59,650.37 -423.33,711.2 -100.54,-2.24 -210.91,-42.34 -313.26,-42.34 56.43,84.28 138.6,163.92 186.26,254 -13.25,19.8 -35.73,51.48 -42.33,76.2 -24.27,-16.25 -242.3,-301.48 -270.93,-355.6 -64.35,0 -96.19,-16.93 -152.4,-16.93 0,215.86 -74.74,63.72 169.33,389.47 14.67,19.57 28.02,37.58 43.51,58.09 15.93,21.09 34.02,33.71 41.16,60.44 -39.3,0.87 -56.61,13.89 -93.14,16.93 -27.61,-41.24 -63.26,-84.32 -94.35,-125.78 -24.4,-32.53 -70.72,-99.89 -100.38,-119.75 0,99.41 -33.87,205.39 -33.87,304.8l-640.07 155.79c-52.57,13.14 -178.26,38.22 -215.06,55.87l383.04 438.24c16.05,18.07 16.77,23.99 33.85,42.34 13.86,14.91 24.5,22.48 37.81,38.39l104.1 124.5c-20.94,89.87 -105.96,172.14 -127,262.47 33.5,-2.79 32.35,-9.77 64.66,-20.01 41.22,-13.08 193.16,-70.25 214.74,-64.66 23.71,15.88 50.93,36.5 59.27,67.73 -71.3,34.21 -371.39,101.21 -408.16,142.18 -15.36,17.11 -55.2,101.08 -57.51,128.75 160.62,85 130.45,59.97 388.33,-26.53 28.81,-9.67 114.38,-38.64 145.07,-41.2z"/>
   <path class="fil0" d="M2277.52 2836.32l-4.65 18.2 4.65 -18.2zm-186.26 0l9.73 16.51 -9.73 -16.51zm127 16.93l-8.47 -999.06c71.51,-47.89 168.13,-57.89 245.53,-16.94 -5.94,71.45 -237.06,948.68 -237.06,1016zm-304.8 -1016c67.3,-35.61 174.19,-29.22 220.46,-0.32 34.41,21.49 25.34,64.79 25.1,118.83l-0.03 889.02c-1.13,-1.77 -2.41,-6.85 -2.79,-5.67 -0.38,1.19 -2.17,-4.48 -2.67,-5.8 -16.45,-43.08 9.83,32.13 -4.67,-12.26l-115.16 -477.5c-21.38,-85.47 -40.05,-169.13 -60.98,-252.29l-59.26 -254.01zm364.06 999.07c0.89,-39.75 211.98,-828.53 229.62,-887.99 14.37,-48.46 12.88,-108.41 61.63,-124.63 62.03,-20.64 112.43,-7.38 165.95,5.09l-457.2 1007.53zm-186.26 0l-14.54 -27.8c-6.99,-14.52 -6.55,-14.27 -13.69,-28.64 -12.74,-25.62 -17.07,-37.59 -28.59,-64.54 -10.83,-25.32 -19.47,-37.53 -30.3,-62.84l-169.8 -372.06c-11.88,-24.55 -16.15,-40.56 -28.03,-65.1 -21.38,-44.17 -38.73,-82.52 -59.4,-126.87 -11.54,-24.78 -17.15,-42.98 -28.06,-65.07 -23.94,-48.44 -74.26,-149.41 -84.79,-194.61 218.26,-50.85 201.15,29.19 225.6,113.06 28.71,98.48 53.09,200.48 77.39,295.14 15.93,62.03 153.13,551.19 154.21,599.33zm-533.4 -1058.33c0,109.72 92.75,242 145.12,371.34 11.17,27.58 23.51,50.8 38.34,80.2l451.54 928.52 313.39 -668.74c13.43,-27.27 21.61,-52.39 36.46,-82.07l120.71 -251.83c98.95,-239.77 230.16,-339.54 78.27,-587.59 -17.9,-29.24 -31.63,-54.98 -52.72,-82.74 -12.72,-16.74 -19.44,-21 -31.63,-36.11 -97.5,-120.82 -271.7,-212.85 -430.62,-212.85 -202.91,0 -327.36,36.23 -476.31,167.16l-63.06 72.4c-22.25,26.26 -38.13,55.9 -57.01,86.92 -28.49,46.8 -72.48,145.93 -72.48,215.39z"/>
   <path class="fil0" d="M2793.99 2294.45l-59.27 0c11.11,-47.67 26.73,-29.94 16.93,-76.2l-50.79 0c-26.16,39.06 -45.97,83.59 -67.74,127 -16.17,32.24 -50.94,99.74 -59.26,135.47 53.68,0 46.94,-11.29 67.73,-42.33l59.27 0c-12.82,48 -125.03,209.2 -135.47,254l-84.67 0c-6.64,28.51 -63.7,67.73 93.14,67.73 41.6,0 95.84,-9.69 129.66,-14.27 54.89,-7.44 86.11,-5.44 98.93,-53.46l-126.99 0c7.07,-26.49 66.98,-99.83 85.98,-125.69l91.81 -128.31 67.74 0c-16.37,70.25 24.52,51.91 61.01,18.81 32.28,-29.27 40.17,-16.65 140.67,-28.8 42.44,-5.13 100.1,-15.13 139.5,-21.36 97.08,-15.37 107.55,-31.34 107.55,-87.19 0,-42.44 -150.27,-25.4 -228.6,-25.4 6.02,-25.82 10.11,-20.46 0,-42.33 -53.41,-12.44 -38.95,-1.03 -73.65,27.9 -27.86,23.23 -65.64,14.43 -112.62,14.43 9.39,-35.16 39.36,-46.18 68.11,-101.24 60.31,-115.47 -12.23,-126.55 -55.85,-98.17 -5.59,3.63 -13.67,11.72 -13.68,11.72l-15.05 10.36c-55.68,33.23 -126.79,111.43 -144.39,177.33z"/>
   <path class="fil0" d="M1320.79 2125.12c0,63.32 68.27,122.35 93.14,169.33 -111.46,0 -81.54,9.13 -126.03,-26.82 -14.5,-11.72 -31.68,-23.24 -48.05,-18.14 -28.33,8.82 -17.42,22.51 -12.19,44.96 -193.09,0 -228.6,-24.2 -228.6,50.8 0,60.55 146.92,68.74 210.2,77.66 43.08,6.08 78.21,11.76 128.77,15.17 69.27,4.68 34.39,35.52 101.3,51.11 11.61,-20.68 8.46,-15.67 8.46,-50.8 76.32,0 54.98,-20.07 152.35,118.58 16.2,23.07 27.49,39.48 46.01,64.06 16.37,21.74 40.59,46.7 47.17,71.36l-126.99 0c12.46,46.67 37.7,46.63 91.44,52.49 82.84,9.03 164.62,29.47 247.22,-10.16 -9.23,-17.45 -11.75,-20.07 -16.93,-42.33l-84.67 0 -135.47 -254 59.27 0c19.47,36.79 11.6,42.33 67.73,42.33 -2.05,-8.83 -103.49,-262.47 -143.93,-262.47 -78.75,0 -25.83,42.86 -16.93,76.2l-59.27 0c-85.28,-161.17 -84.11,-128.32 -169.62,-194.44 -6.1,-4.72 -2.97,-5.13 -14.71,-10.69 -31.35,-14.83 -69.67,-8.01 -69.67,35.8z"/>
  </g>
 </g>
</svg>
