<svg width="761" height="200" viewBox="0 0 761 200" fill="none" xmlns="http://www.w3.org/2000/svg">
<path fill-rule="evenodd" clip-rule="evenodd" d="M121.823 70.4018C105.468 70.4018 92.2511 83.6755 92.2511 99.9703C92.2511 116.304 105.468 129.597 121.823 129.597C138.178 129.597 151.453 116.324 151.453 99.9703C151.453 83.6755 138.178 70.4018 121.823 70.4018ZM121.823 84.0458C130.614 84.0458 137.749 91.1797 137.749 99.9703C137.749 108.761 130.614 115.953 121.823 115.953C113.031 115.953 105.897 108.761 105.897 99.9703C105.897 91.1797 113.031 84.0458 121.823 84.0458Z" fill="#FFB800"/>
<path fill-rule="evenodd" clip-rule="evenodd" d="M70.1223 99.98C70.1223 71.4682 93.2588 48.2754 121.832 48.2754C150.406 48.2754 173.582 71.4682 173.582 99.98C173.582 128.55 150.386 151.724 121.832 151.724C93.2784 151.724 70.1223 128.531 70.1223 99.98ZM121.832 62.9306C142.301 62.9306 158.925 79.5531 158.925 99.98C158.925 120.446 142.32 137.069 121.832 137.069C101.345 137.069 84.779 120.466 84.779 99.98C84.779 79.5531 101.364 62.9306 121.832 62.9306Z" fill="#FFB800"/>
<path d="M204.849 74.1377L195.825 74.1379L190.71 79.2528V80.9195H197.147L197.147 124.942H204.849V74.1377Z" fill="#FFB800"/>
<path d="M623.342 106.834C623.342 101.608 625.129 97.1408 628.703 93.4334C632.321 89.726 636.9 87.8722 642.44 87.8722C647.979 87.8722 652.536 89.726 656.11 93.4334C659.728 97.0962 661.537 101.563 661.537 106.834C661.537 112.194 659.728 116.705 656.11 120.368C652.58 124.031 648.024 125.862 642.44 125.862C636.9 125.862 632.321 124.031 628.703 120.368C625.129 116.661 623.342 112.149 623.342 106.834ZM654.099 106.834C654.099 103.528 652.96 100.692 650.682 98.3245C648.493 95.9125 645.746 94.7064 642.44 94.7064C639.179 94.7064 636.409 95.9125 634.131 98.3245C631.897 100.692 630.78 103.528 630.78 106.834C630.78 110.184 631.897 113.043 634.131 115.41C636.409 117.777 639.179 118.961 642.44 118.961C645.701 118.961 648.448 117.777 650.682 115.41C652.96 113.043 654.099 110.184 654.099 106.834Z" fill="#FFB800"/>
<path d="M524.603 117.565L527.053 123.527C524.35 125.039 520.523 125.795 517.075 125.795C513.189 125.795 510.24 124.611 508.23 122.244C506.22 119.877 505.215 116.459 505.215 111.993V95.1082H499.558V88.8101H505.282V74.8278H512.586V88.8101H524.596V95.1082H512.586V112.127C512.586 116.727 514.439 119.028 518.147 119.028C519.824 119.028 522.452 118.54 524.603 117.565Z" fill="#FFB800"/>
<path fill-rule="evenodd" clip-rule="evenodd" d="M438.725 125.862C446.024 125.862 449.875 124.311 454.761 120.69L451.542 115.23C447.289 118.42 443.725 119.311 438.725 119.311C433.051 119.311 428.321 115.431 427.485 109.943H456.019C456.175 108.933 456.255 107.896 456.255 106.839C456.255 95.6898 448.714 87.8163 438.207 87.8163C427.7 87.8163 419.929 96.3332 419.929 106.839C419.929 117.345 427.485 125.862 438.725 125.862ZM449.274 103.736C448.151 98.0462 443.881 94.4255 438.207 94.4255C432.534 94.4255 428.494 98.4485 427.485 103.736H449.274Z" fill="#FFB800"/>
<path fill-rule="evenodd" clip-rule="evenodd" d="M320.164 93.4351C316.59 97.1424 314.803 101.609 314.803 106.835C314.803 112.15 316.59 116.661 320.164 120.369C323.783 124.031 328.362 125.863 333.901 125.863C338.257 125.863 341.988 124.748 345.094 122.519V124.943H352.451V106.881C352.451 106.865 352.451 106.85 352.451 106.835C352.451 106.82 352.451 106.805 352.451 106.79V88.8508H345.094V91.2753C341.964 89.0079 338.233 87.8742 333.901 87.8742C328.362 87.8742 323.783 89.7279 320.164 93.4351ZM345.094 106.796C345.089 103.508 344.413 100.684 342.143 98.3261C339.954 95.9141 337.207 94.7081 333.901 94.7081C330.64 94.7081 327.87 95.9141 325.592 98.3261C323.358 100.693 322.241 103.53 322.241 106.835C322.241 110.185 323.358 113.044 325.592 115.411C327.87 117.778 330.64 118.962 333.901 118.962C337.162 118.962 339.909 117.778 342.143 115.411C344.413 113.053 345.089 110.207 345.094 106.874C345.094 106.861 345.094 106.848 345.094 106.835C345.094 106.822 345.094 106.809 345.094 106.796Z" fill="#FFB800"/>
<path d="M617.537 88.8508V124.943H610.179V88.8508H617.537Z" fill="#FFB800"/>
<path d="M618.686 80.891C618.686 83.5731 616.512 85.7473 613.829 85.7473C611.147 85.7473 608.972 83.5731 608.972 80.891C608.972 78.2089 611.147 76.0347 613.829 76.0347C616.512 76.0347 618.686 78.2089 618.686 80.891Z" fill="#FFB800"/>
<path fill-rule="evenodd" clip-rule="evenodd" d="M602.478 106.772V74.8273H595.121V91.2753C591.991 89.0079 588.26 87.8742 583.928 87.8742C578.388 87.8742 573.809 89.7279 570.191 93.4351C566.617 97.1424 564.83 101.609 564.83 106.835C564.83 112.15 566.617 116.661 570.191 120.369C573.809 124.031 578.388 125.863 583.928 125.863C588.284 125.863 592.015 124.748 595.121 122.519V124.942H602.478V106.899C602.478 106.878 602.478 106.856 602.478 106.835C602.478 106.814 602.478 106.793 602.478 106.772ZM595.121 106.835C595.121 103.53 594.448 100.693 592.17 98.3261C589.981 95.9141 587.233 94.7081 583.928 94.7081C580.666 94.7081 577.897 95.9141 575.618 98.3261C573.385 100.693 572.268 103.53 572.268 106.835C572.268 110.185 573.385 113.044 575.618 115.411C577.897 117.778 580.666 118.962 583.928 118.962C587.189 118.962 589.936 117.778 592.17 115.411C594.448 113.044 595.121 110.185 595.121 106.835Z" fill="#FFB800"/>
<path d="M665.674 97.9312C665.674 91.497 671.335 87.5864 677.724 87.5864C683.388 87.5864 687.133 89.623 689.949 93.3967L685.647 97.7875C683.542 95.3916 681.566 93.7646 677.724 93.7646C674.555 93.7646 672.887 95.8064 672.887 97.9312C672.887 99.7128 674.058 100.956 677.227 102.213L682.488 104.457C687.451 106.702 690.878 109.223 690.878 114.73C690.878 120.236 685.736 125.862 677.007 125.862C671.152 125.862 666.087 122.424 663.432 118.305L668.232 113.765C669.148 115.301 671.764 119.253 677.455 119.253C680.474 119.253 683.463 117.937 683.463 114.914C683.463 111.351 678.578 110.15 674.841 108.563C670.865 106.876 665.674 104.365 665.674 97.9312Z" fill="#FFB800"/>
<path d="M251.401 110.577C248.105 115.17 242.719 118.161 236.634 118.161C226.603 118.161 218.471 110.03 218.471 100C218.471 89.9704 226.603 81.8395 236.634 81.8395C242.722 81.8395 248.111 84.8348 251.406 89.4319L256.904 83.9347C252.166 77.9661 244.847 74.1384 236.634 74.1384C222.349 74.1384 210.769 85.7172 210.769 100C210.769 114.284 222.349 125.862 236.634 125.862C244.844 125.862 252.16 122.038 256.898 116.074L251.401 110.577Z" fill="#FFB800"/>
<path d="M310.493 96.4947H297.934L292.847 101.581V103.276H302.906V113.037C299.636 116.209 295.176 118.161 290.261 118.161C280.23 118.161 272.098 110.03 272.098 100C272.098 89.9704 280.23 81.8395 290.261 81.8395C296.349 81.8395 301.737 84.8286 305.032 89.4257L310.493 83.9085C305.755 77.9398 298.474 74.1384 290.261 74.1384C275.976 74.1384 264.396 85.7172 264.396 100C264.396 114.284 275.976 125.862 290.261 125.862C298.452 125.862 305.754 122.055 310.493 116.114V96.4947Z" fill="#FFB800"/>
<path d="M466.572 87.4427C466.572 79.9427 473.539 74.1381 481.634 74.1381C488.81 74.1381 493.555 76.8903 497.123 81.9898L491.891 87.2128C489.362 83.6784 486.73 81.437 481.861 81.437C477.436 81.437 474.303 84.0232 474.303 87.4427C474.303 90.8623 476.467 92.9856 480.482 94.6841L487.148 97.7172C493.436 100.75 498.271 104.47 498.271 110.805C498.271 119.01 492.15 125.862 480.725 125.862C473.308 125.862 466.976 121.343 463.612 115.776L469.015 110.374C470.682 113.678 474.648 118.563 481.143 118.563C484.968 118.563 490.253 116.494 490.253 111.063C490.253 106.494 483.291 104.011 478.556 101.868C473.519 99.5875 466.572 96.1376 466.572 87.4427Z" fill="#FFB800"/>
<path d="M528.504 109.9C528.504 119.281 534.969 125.862 544.253 125.862C553.537 125.862 560.002 119.281 560.002 109.9V88.7933H552.674V110.431C552.674 115.374 549.008 118.94 544.253 118.94C539.498 118.94 535.832 115.374 535.832 110.431V88.7933H528.504V109.9Z" fill="#FFB800"/>
<path d="M375.212 87.8738C372.138 87.8738 369.137 89.2777 366.705 91.6149V88.6784H359.463V124.943H366.763V103.88C366.763 98.937 370.457 94.7965 375.212 94.7965C379.967 94.7965 383.661 98.3623 383.661 103.305V124.943H390.961V103.88C390.961 98.9418 394.648 94.8045 399.396 94.7965C404.144 94.804 407.802 98.3674 407.802 103.305V124.943H415.101V103.836C415.101 94.4651 408.679 87.8873 399.41 87.8738C399.406 87.8738 399.402 87.8738 399.398 87.8738C399.392 87.8738 399.387 87.8738 399.381 87.8738C395.154 87.8858 391.068 90.5507 388.414 94.6442C385.702 90.437 381.006 87.8738 375.212 87.8738Z" fill="#FFB800"/>
</svg>
