<svg width="440" height="200" viewBox="0 0 440 200" fill="none" xmlns="http://www.w3.org/2000/svg">
<path fill-rule="evenodd" clip-rule="evenodd" d="M122.971 71.8163C106.847 71.8163 93.8169 84.9041 93.8169 100.971C93.8169 117.076 106.847 130.183 122.971 130.183C139.096 130.183 152.184 117.095 152.184 100.971C152.184 84.9041 139.096 71.8163 122.971 71.8163ZM122.971 85.2692C131.639 85.2692 138.673 92.3032 138.673 100.971C138.673 109.638 131.639 116.73 122.971 116.73C114.304 116.73 107.27 109.638 107.27 100.971C107.27 92.3032 114.304 85.2692 122.971 85.2692Z" fill="#171717"/>
<path fill-rule="evenodd" clip-rule="evenodd" d="M122.981 50C94.8102 50 72 72.8681 72 100.981C72 129.132 94.8295 152 122.981 152C151.132 152 174 129.151 174 100.981C174 72.8681 151.151 50 122.981 50ZM122.981 64.3648C143.207 64.3648 159.635 80.7928 159.635 100.981C159.635 121.207 143.226 137.635 122.981 137.635C102.735 137.635 86.3648 121.226 86.3648 100.981C86.3648 80.7928 102.754 64.3648 122.981 64.3648Z" fill="#171717"/>
<path d="M258.448 112.937C254.729 118.119 248.652 121.495 241.787 121.495C230.469 121.495 221.294 112.32 221.294 101.002C221.294 89.6838 230.469 80.5086 241.787 80.5086C248.656 80.5086 254.736 83.8885 258.455 89.0761L264.658 82.8729C259.312 76.1378 251.054 71.8185 241.787 71.8185C225.669 71.8185 212.604 84.8843 212.604 101.002C212.604 117.119 225.669 130.185 241.787 130.185C251.05 130.185 259.305 125.87 264.651 119.139L258.448 112.937Z" fill="#171717"/>
<path d="M316.69 97.0459H302.52L296.781 102.785V104.698H308.13V115.713C304.44 119.292 299.409 121.495 293.863 121.495C282.545 121.495 273.369 112.32 273.369 101.002C273.369 89.6838 282.545 80.5086 293.863 80.5086C300.732 80.5086 306.811 83.8815 310.53 89.0691L316.69 82.8433C311.345 76.1081 303.129 71.8185 293.863 71.8185C277.745 71.8185 264.679 84.8843 264.679 101.002C264.679 117.119 277.745 130.185 293.863 130.185C303.105 130.185 311.343 125.889 316.69 119.185V97.0459Z" fill="#171717"/>
<path d="M323.987 86.8317C323.987 78.3685 331.848 71.8185 340.982 71.8185C349.079 71.8185 354.432 74.9241 358.458 80.6785L352.555 86.5723C349.701 82.5839 346.731 80.0547 341.238 80.0547C336.244 80.0547 332.71 82.973 332.71 86.8317C332.71 90.6904 335.151 93.0864 339.682 95.003L347.203 98.4256C354.297 101.848 359.753 106.045 359.753 113.194C359.753 122.453 352.846 130.185 339.956 130.185C331.587 130.185 324.443 125.085 320.648 118.804L326.744 112.708C328.624 116.437 333.099 121.949 340.427 121.949C344.744 121.949 350.706 119.614 350.706 113.486C350.706 108.33 342.851 105.528 337.509 103.11C331.825 100.536 323.987 96.6431 323.987 86.8317Z" fill="#171717"/>
<path d="M195.802 71.8184L190.043 77.592V79.4732H197.29L197.29 129.165H205.96V71.8184L195.802 71.8184Z" fill="#171717"/>
</svg>
